<svg viewBox="0 0 126 120" fill="none" xmlns="http://www.w3.org/2000/svg">
  <path fill-rule="evenodd" clip-rule="evenodd"
        d="M65.0177 3.56685C64.1525 1.92777 61.8475 1.92777 60.9823 3.56685L2.57193 114.217C1.74983 115.774 2.85562 117.662 4.58963 117.662H121.41C123.144 117.662 124.25 115.774 123.428 114.217L65.0177 3.56685ZM58.9646 2.45862C60.6951 -0.819542 65.3049 -0.819538 67.0354 2.45862L125.446 113.108C127.09 116.223 124.878 120 121.41 120H4.58963C1.12161 120 -1.08997 116.223 0.554222 113.108L58.9646 2.45862Z"
        fill="#DA5D41"/>
  <path fill-rule="evenodd" clip-rule="evenodd"
        d="M63 107.144C66.7969 107.144 69.8749 104.004 69.8749 100.131C69.8749 96.258 66.7969 93.1183 63 93.1183C59.2031 93.1183 56.1251 96.258 56.1251 100.131C56.1251 104.004 59.2031 107.144 63 107.144ZM63 109.481C68.0625 109.481 72.1665 105.295 72.1665 100.131C72.1665 94.967 68.0625 90.7808 63 90.7808C57.9375 90.7808 53.8335 94.967 53.8335 100.131C53.8335 105.295 57.9375 109.481 63 109.481Z"
        fill="#DA5D41"/>
  <path fill-rule="evenodd" clip-rule="evenodd"
        d="M69.8749 72.0805V34.6799C69.8749 30.807 66.7969 27.6673 63 27.6673C59.2031 27.6673 56.1251 30.807 56.1251 34.6799V72.0805C56.1251 75.9535 59.2031 79.0931 63 79.0931C66.7969 79.0931 69.8749 75.9535 69.8749 72.0805ZM63 25.3298C57.9375 25.3298 53.8335 29.516 53.8335 34.6799V72.0805C53.8335 77.2445 57.9375 81.4307 63 81.4307C68.0625 81.4307 72.1665 77.2445 72.1665 72.0805V34.6799C72.1665 29.516 68.0625 25.3298 63 25.3298Z"
        fill="#DA5D41"/>
</svg>
