<svg viewBox="0 0 16 16" fill="none" xmlns="http://www.w3.org/2000/svg">
  <path fill-rule="evenodd" clip-rule="evenodd"
        d="M7.08114 2C6.86592 2 6.67485 2.13772 6.6068 2.34189L6.38743 3H9.61257L9.3932 2.34189C9.32515 2.13771 9.13408 2 8.91886 2H7.08114ZM11.7208 3L11.2906 1.70943C10.9503 0.688575 9.99494 0 8.91886 0H7.08114C6.00506 0 5.04972 0.688576 4.70943 1.70943L4.27924 3H1C0.447715 3 0 3.44772 0 4C0 4.55228 0.447715 5 1 5H2V13.5C2 14.8807 3.11929 16 4.5 16H11.5C12.8807 16 14 14.8807 14 13.5V5H15C15.5523 5 16 4.55228 16 4C16 3.44772 15.5523 3 15 3H11.7208ZM12 5H4V13.5C4 13.7761 4.22386 14 4.5 14H11.5C11.7761 14 12 13.7761 12 13.5V5ZM5.29289 7.29289C5.68342 6.90237 6.31658 6.90237 6.70711 7.29289L8 8.58579L9.29289 7.29289C9.68342 6.90237 10.3166 6.90237 10.7071 7.29289C11.0976 7.68342 11.0976 8.31658 10.7071 8.70711L9.41421 10L10.7071 11.2929C11.0976 11.6834 11.0976 12.3166 10.7071 12.7071C10.3166 13.0976 9.68342 13.0976 9.29289 12.7071L8 11.4142L6.70711 12.7071C6.31658 13.0976 5.68342 13.0976 5.29289 12.7071C4.90237 12.3166 4.90237 11.6834 5.29289 11.2929L6.58579 10L5.29289 8.70711C4.90237 8.31658 4.90237 7.68342 5.29289 7.29289Z"
        fill="white"/>
</svg>
