<svg viewBox="0 0 16 16" fill="none" xmlns="http://www.w3.org/2000/svg">
  <path fill-rule="evenodd" clip-rule="evenodd"
        d="M5 0C5.55228 0 6 0.447715 6 1V2H10V1C10 0.447715 10.4477 0 11 0C11.5523 0 12 0.447715 12 1V2H13.5C14.8807 2 16 3.11929 16 4.5V12.5C16 13.8807 14.8807 15 13.5 15H2.5C1.11929 15 0 13.8807 0 12.5V4.5C0 3.11929 1.11929 2 2.5 2H4V1C4 0.447715 4.44772 0 5 0ZM4 4H2.5C2.22386 4 2 4.22386 2 4.5V7H14V4.5C14 4.22386 13.7761 4 13.5 4H12C12 4.55228 11.5523 5 11 5C10.4477 5 10 4.55228 10 4H6C6 4.55228 5.55228 5 5 5C4.44772 5 4 4.55228 4 4ZM14 9H2V12.5C2 12.7761 2.22386 13 2.5 13H13.5C13.7761 13 14 12.7761 14 12.5V9Z"
        fill="#585B60"/>
</svg>
