<svg viewBox="0 0 64 64" fill="none" xmlns="http://www.w3.org/2000/svg">
  <path fill-rule="evenodd" clip-rule="evenodd"
        d="M32 56C45.2548 56 56 45.2548 56 32C56 18.7452 45.2548 8 32 8C18.7452 8 8 18.7452 8 32C8 45.2548 18.7452 56 32 56ZM32 64C49.6731 64 64 49.6731 64 32C64 14.3269 49.6731 0 32 0C14.3269 0 0 14.3269 0 32C0 49.6731 14.3269 64 32 64Z"
        fill="#2D2F33"/>
  <path fill-rule="evenodd" clip-rule="evenodd"
        d="M32 12C34.2091 12 36 13.7909 36 16V26C36 27.1046 36.8954 28 38 28H48C50.2091 28 52 29.7909 52 32C52 34.2091 50.2091 36 48 36H38C32.4772 36 28 31.5228 28 26V16C28 13.7909 29.7909 12 32 12Z"
        fill="#2D2F33"/>
  <path
    d="M40 32C40 36.4183 36.4183 40 32 40C27.5817 40 24 36.4183 24 32C24 27.5817 27.5817 24 32 24C36.4183 24 40 27.5817 40 32Z"
    fill="#2D2F33"/>
</svg>
