<svg viewBox="0 0 16 16" fill="none" xmlns="http://www.w3.org/2000/svg">
  <path fill-rule="evenodd" clip-rule="evenodd"
        d="M8 2C5.79086 2 4 3.79086 4 6V6.30116C4 7.19762 4.28011 8.07168 4.80116 8.80116L8 13.2795L11.1988 8.80116C11.7199 8.07168 12 7.19762 12 6.30116V6C12 3.79086 10.2091 2 8 2ZM2 6C2 2.68629 4.68629 0 8 0C11.3137 0 14 2.68629 14 6V6.30116C14 7.61447 13.5896 8.89496 12.8263 9.96364L8.81373 15.5812C8.62602 15.844 8.32295 16 8 16C7.67705 16 7.37398 15.844 7.18627 15.5812L3.1737 9.96364C2.41035 8.89496 2 7.61447 2 6.30116V6Z"
        fill="#585B60"/>
  <path d="M10 6C10 7.10457 9.10457 8 8 8C6.89543 8 6 7.10457 6 6C6 4.89543 6.89543 4 8 4C9.10457 4 10 4.89543 10 6Z"
        fill="#585B60"/>
</svg>
