<svg viewBox="0 0 64 64" fill="none" xmlns="http://www.w3.org/2000/svg">
  <path fill-rule="evenodd" clip-rule="evenodd" d="M20 10C20 4.47715 24.4772 0 30 0H54C59.5228 0 64 4.47715 64 10V38C64 43.5229 59.5228 48 54 48H44V54C44 59.5228 39.5228 64 34 64H10C4.47715 64 0 59.5229 0 54V25.5C0 19.9772 4.47715 15.5 10 15.5H20V10ZM28 15.5H34C39.5228 15.5 44 19.9772 44 25.5V40H54C55.1046 40 56 39.1046 56 38V10C56 8.89543 55.1046 8 54 8H30C28.8954 8 28 8.89543 28 10V15.5ZM10 23.5C8.89543 23.5 8 24.3954 8 25.5V54C8 55.1046 8.89543 56 10 56H34C35.1046 56 36 55.1046 36 54V25.5C36 24.3954 35.1046 23.5 34 23.5H10Z" fill="#2D2F33"/>
</svg>
