<svg viewBox="0 0 16 16" fill="none" xmlns="http://www.w3.org/2000/svg">
  <path fill-rule="evenodd" clip-rule="evenodd"
        d="M8 14C9.29583 14 10.4957 13.5892 11.4765 12.8907C12.0231 12.5016 12.5016 12.0231 12.8907 11.4765C13.5892 10.4957 14 9.29583 14 8C14 6.70417 13.5892 5.50428 12.8907 4.52347C12.5016 3.97695 12.0231 3.49844 11.4765 3.10925C10.4957 2.41079 9.29583 2 8 2C6.70417 2 5.50428 2.41079 4.52347 3.10925C3.97695 3.49844 3.49844 3.97695 3.10925 4.52347C2.41079 5.50428 2 6.70417 2 8C2 9.29583 2.41079 10.4957 3.10925 11.4765C3.49844 12.0231 3.97695 12.5016 4.52347 12.8907C5.50428 13.5892 6.70417 14 8 14ZM8 16C12.4183 16 16 12.4183 16 8C16 3.58172 12.4183 5.96046e-08 8 5.96046e-08C3.58172 5.96046e-08 5.96046e-08 3.58172 5.96046e-08 8C5.96046e-08 12.4183 3.58172 16 8 16Z"
        fill="#2D2F33"/>
  <path
    d="M6.40901 7.82322C6.50664 7.92085 6.50664 8.07915 6.40901 8.17678L3.10925 11.4765C3.49844 12.0231 3.97695 12.5016 4.52347 12.8907L7.82322 9.59099C7.92085 9.49336 8.07915 9.49336 8.17678 9.59099L11.4765 12.8907C12.0231 12.5016 12.5016 12.0231 12.8907 11.4765L9.59099 8.17678C9.49336 8.07914 9.49336 7.92085 9.59099 7.82322L12.8907 4.52347C12.5016 3.97695 12.0231 3.49844 11.4765 3.10925L8.17678 6.40901C8.07914 6.50664 7.92085 6.50664 7.82322 6.40901L4.52347 3.10925C3.97695 3.49844 3.49844 3.97695 3.10925 4.52347L6.40901 7.82322Z"
    fill="#2D2F33"/>
</svg>
