<svg viewBox="0 0 12 12" fill="none" xmlns="http://www.w3.org/2000/svg">
  <path
    d="M0 2.0625C0 1.23407 0.671573 0.5625 1.5 0.5625C2.32843 0.5625 3 1.23407 3 2.0625C3 2.89093 2.32843 3.5625 1.5 3.5625C0.671573 3.5625 0 2.89093 0 2.0625Z"
    fill="#6367AD"/>
  <path
    d="M9 2.0625C9 1.23407 9.67157 0.5625 10.5 0.5625C11.3284 0.5625 12 1.23407 12 2.0625C12 2.89093 11.3284 3.5625 10.5 3.5625C9.67157 3.5625 9 2.89093 9 2.0625Z"
    fill="#6367AD"/>
  <path
    d="M4.5 2.0625C4.5 1.23407 5.17157 0.5625 6 0.5625C6.82843 0.5625 7.5 1.23407 7.5 2.0625C7.5 2.89093 6.82843 3.5625 6 3.5625C5.17157 3.5625 4.5 2.89093 4.5 2.0625Z"
    fill="#6367AD"/>
  <path
    d="M2.25 6C2.25 5.17157 2.92157 4.5 3.75 4.5C4.57843 4.5 5.25 5.17157 5.25 6C5.25 6.82843 4.57843 7.5 3.75 7.5C2.92157 7.5 2.25 6.82843 2.25 6Z"
    fill="#6367AD"/>
  <path
    d="M4.5 9.9375C4.5 9.10907 5.17157 8.4375 6 8.4375C6.82843 8.4375 7.5 9.10907 7.5 9.9375C7.5 10.7659 6.82843 11.4375 6 11.4375C5.17157 11.4375 4.5 10.7659 4.5 9.9375Z"
    fill="#6367AD"/>
  <path
    d="M6.75 6C6.75 5.17157 7.42157 4.5 8.25 4.5C9.07843 4.5 9.75 5.17157 9.75 6C9.75 6.82843 9.07843 7.5 8.25 7.5C7.42157 7.5 6.75 6.82843 6.75 6Z"
    fill="#6367AD"/>
</svg>
