<svg viewBox="0 0 16 16" fill="none" xmlns="http://www.w3.org/2000/svg">
  <path fill-rule="evenodd" clip-rule="evenodd"
        d="M1 10C1.55228 10 2 10.4477 2 11V13.5C2 13.7761 2.22386 14 2.5 14H13.5C13.7761 14 14 13.7761 14 13.5V11C14 10.4477 14.4477 10 15 10C15.5523 10 16 10.4477 16 11V13.5C16 14.8807 14.8807 16 13.5 16H2.5C1.11929 16 0 14.8807 0 13.5V11C0 10.4477 0.447715 10 1 10Z"
        fill="#4163DA"/>
  <path fill-rule="evenodd" clip-rule="evenodd"
        d="M8 0C8.55228 0 9 0.447715 9 1V8.58579L11.2929 6.29289C11.6834 5.90237 12.3166 5.90237 12.7071 6.29289C13.0976 6.68342 13.0976 7.31658 12.7071 7.70711L8.70711 11.7071C8.31658 12.0976 7.68342 12.0976 7.29289 11.7071L3.29289 7.70711C2.90237 7.31658 2.90237 6.68342 3.29289 6.29289C3.68342 5.90237 4.31658 5.90237 4.70711 6.29289L7 8.58579V1C7 0.447715 7.44772 0 8 0Z"
        fill="#4163DA"/>
</svg>
