<svg viewBox="0 0 25 25" fill="none" xmlns="http://www.w3.org/2000/svg">
  <path fill-rule="evenodd" clip-rule="evenodd"
        d="M17.364 1.01513C18.682 -0.302896 20.8189 -0.302892 22.137 1.01513L23.9853 2.86348C25.3033 4.1815 25.3033 6.31843 23.9853 7.63645L10.2143 21.4075C9.63969 21.9821 8.9544 22.4339 8.19996 22.7357L5.61964 23.7678C2.86459 24.8699 0.130568 22.1358 1.23259 19.3808L2.26472 16.8005C2.5665 16.046 3.01837 15.3607 3.59294 14.7862L17.364 1.01513ZM20.0156 3.13645C19.8692 2.99 19.6318 2.99 19.4853 3.13645L18.1218 4.49996L20.5005 6.87864L21.864 5.51513C22.0104 5.36868 22.0104 5.13124 21.864 4.9848L20.0156 3.13645ZM18.3792 8.99996L16.0005 6.62128L5.71426 16.9075C5.42697 17.1948 5.20104 17.5374 5.05015 17.9146L4.01802 20.495C3.89557 20.8011 4.19935 21.1049 4.50547 20.9824L7.08579 19.9503C7.46301 19.7994 7.80565 19.5735 8.09294 19.2862L18.3792 8.99996Z"
        fill="#4163DA"/>
</svg>
