<svg viewBox="0 0 16 16" fill="none" xmlns="http://www.w3.org/2000/svg">
  <path fill-rule="evenodd" clip-rule="evenodd" d="M8.50017 1.00011C8.50017 0.447821 8.94788 0.000105848 9.50017 0.000105848H14.5002C15.0525 0.000105848 15.5002 0.447821 15.5002 1.00011V15.0001C15.5002 15.5524 15.0525 16.0001 14.5002 16.0001H9.50017C8.94788 16.0001 8.50017 15.5524 8.50017 15.0001V1.00011ZM10.5002 2.00011V14.0001H13.5002V13.0001H12.5002C11.9479 13.0001 11.5002 12.5524 11.5002 12.0001C11.5002 11.4478 11.9479 11.0001 12.5002 11.0001H13.5002V10.0001H12.5002C11.9479 10.0001 11.5002 9.55239 11.5002 9.00011C11.5002 8.44782 11.9479 8.00011 12.5002 8.00011H13.5002V7.00011H12.5002C11.9479 7.00011 11.5002 6.55239 11.5002 6.00011C11.5002 5.44782 11.9479 5.00011 12.5002 5.00011H13.5002V2.00011H10.5002Z" fill="#939599"/>
  <path fill-rule="evenodd" clip-rule="evenodd" d="M1.94022 15.8771C1.57436 15.7791 1.29528 15.4828 1.21934 15.1117L0.546913 11.8257C0.51579 11.6736 0.520505 11.5163 0.560686 11.3664L3.4077 0.741185C3.55064 0.207718 4.09897 -0.108864 4.63244 0.0340783L7.53022 0.810535C8.06368 0.953477 8.38027 1.50181 8.23732 2.03528L5.39031 12.6605C5.35013 12.8104 5.27559 12.949 5.17259 13.0651L2.94725 15.5747C2.69594 15.8581 2.30609 15.9752 1.94022 15.8771ZM3.51956 11.9148L5.2702 5.38135L4.30427 5.12253L2.55364 11.656L2.77778 12.7513L3.51956 11.9148ZM4.82191 3.19067L5.78783 3.44949L6.04665 2.48357L5.08073 2.22475L4.82191 3.19067Z" fill="#939599"/>
</svg>
