<svg viewBox="0 0 14 16" fill="none" xmlns="http://www.w3.org/2000/svg">
  <path fill-rule="evenodd" clip-rule="evenodd"
        d="M6.29289 0.292893C6.68342 -0.0976311 7.31658 -0.0976311 7.70711 0.292893L9.70711 2.29289C10.0976 2.68342 10.0976 3.31658 9.70711 3.70711C9.31658 4.09763 8.68342 4.09763 8.29289 3.70711L8 3.41421V10C8 10.5523 7.55228 11 7 11C6.44772 11 6 10.5523 6 10V3.41421L5.70711 3.70711C5.31658 4.09763 4.68342 4.09763 4.29289 3.70711C3.90237 3.31658 3.90237 2.68342 4.29289 2.29289L6.29289 0.292893ZM3.5 7C2.94772 7 2.5 7.44772 2.5 8V13C2.5 13.5523 2.94772 14 3.5 14H10.5C11.0523 14 11.5 13.5523 11.5 13V8C11.5 7.44772 11.0523 7 10.5 7H10C9.44772 7 9 6.55228 9 6C9 5.44772 9.44772 5 10 5H10.5C12.1569 5 13.5 6.34315 13.5 8V13C13.5 14.6569 12.1569 16 10.5 16H3.5C1.84315 16 0.5 14.6569 0.5 13V8C0.5 6.34315 1.84315 5 3.5 5H4C4.55228 5 5 5.44772 5 6C5 6.55228 4.55228 7 4 7H3.5Z"
        fill="#6367AD"/>
</svg>
