<svg viewBox="0 0 16 16" fill="none" xmlns="http://www.w3.org/2000/svg">
  <path fill-rule="evenodd" clip-rule="evenodd"
        d="M8 2.875C10.6825 2.875 13.1837 4.51546 15.7399 7.32733C16.0867 7.70875 16.0867 8.29125 15.7399 8.67267C13.1837 11.4845 10.6825 13.125 8 13.125C5.31748 13.125 2.8163 11.4845 0.26006 8.67267C-0.0866866 8.29125 -0.0866866 7.70875 0.26006 7.32733C2.8163 4.51546 5.31748 2.875 8 2.875ZM2.37431 8C4.53374 10.202 6.3423 11.125 8 11.125C9.6577 11.125 11.4663 10.202 13.6257 8C11.4663 5.79803 9.6577 4.875 8 4.875C6.3423 4.875 4.53374 5.79803 2.37431 8Z"
        fill="#4163DA"/>
  <path d="M10 8C10 9.10457 9.10457 10 8 10C6.89543 10 6 9.10457 6 8C6 6.89543 6.89543 6 8 6C9.10457 6 10 6.89543 10 8Z"
        fill="#4163DA"/>
</svg>
