<svg viewBox="0 0 12 12" fill="none" xmlns="http://www.w3.org/2000/svg">
  <path fill-rule="evenodd" clip-rule="evenodd"
        d="M5.46957 11.7803C5.76246 12.0732 6.23734 12.0732 6.53023 11.7803L10.1476 8.16291C10.7382 7.57232 10.32 6.5625 9.48473 6.5625H2.51506C1.67984 6.5625 1.26156 7.57232 1.85215 8.16291L5.46957 11.7803ZM3.87306 8.0625H8.12674L5.9999 10.1893L3.87306 8.0625Z"
        fill="#6367AD"/>
  <path fill-rule="evenodd" clip-rule="evenodd"
        d="M5.46957 0.21967C5.76246 -0.0732233 6.23734 -0.0732233 6.53023 0.21967L10.1476 3.83709C10.7382 4.42768 10.32 5.4375 9.48473 5.4375H2.51506C1.67984 5.4375 1.26156 4.42768 1.85215 3.83709L5.46957 0.21967ZM3.87306 3.9375H8.12674L5.9999 1.81066L3.87306 3.9375Z"
        fill="#6367AD"/>
</svg>
