<svg width="24" height="24" viewBox="0 0 24 24" fill="none" xmlns="http://www.w3.org/2000/svg">
  <path
    d="M16.5 6C16.5 5.17157 17.1716 4.5 18 4.5C18.8284 4.5 19.5 5.17157 19.5 6C19.5 6.82843 18.8284 7.5 18 7.5C17.1716 7.5 16.5 6.82843 16.5 6Z"
    fill="#2D2F33"/>
  <path fill-rule="evenodd" clip-rule="evenodd"
        d="M12 7.5C12 5.01472 14.0147 3 16.5 3C18.9853 3 21 5.01472 21 7.5C21 9.98528 18.9853 12 16.5 12C14.0147 12 12 9.98528 12 7.5ZM16.5 0C12.3579 0 9 3.35786 9 7.5C9 7.78154 9.01551 8.05946 9.04573 8.33295L1.09835 16.2803C0.395087 16.9836 0 17.9374 0 18.932V20.25C0 22.3211 1.67893 24 3.75 24H5.06802C6.06258 24 7.01641 23.6049 7.71967 22.9016L15.6671 14.9543C15.9405 14.9845 16.2185 15 16.5 15C20.6421 15 24 11.6421 24 7.5C24 3.35786 20.6421 0 16.5 0ZM8.25 13.5784C8.25 13.4458 8.30268 13.3186 8.39645 13.2249L9.69801 11.9233C9.92514 11.6962 10.3042 11.7397 10.4969 11.9967C10.9251 12.5673 11.4327 13.0749 12.0033 13.5031C12.2603 13.6958 12.3038 14.0749 12.0767 14.302L10.7751 15.6036C10.6814 15.6973 10.5542 15.75 10.4216 15.75H9C8.58579 15.75 8.25 15.4142 8.25 15V13.5784ZM3.21967 18.4016C3.07902 18.5423 3 18.7331 3 18.932V20.25C3 20.6642 3.33579 21 3.75 21H5.06802C5.26693 21 5.4577 20.921 5.59835 20.7803L7.39091 18.9878C7.54853 18.8302 7.43667 18.5607 7.21377 18.561L6.1875 18.5625C5.77329 18.5625 5.4375 18.2267 5.4375 17.8125L5.43901 16.7862C5.43933 16.5633 5.16985 16.4515 5.01223 16.6091L3.21967 18.4016Z"
        fill="#2D2F33"/>
</svg>
