<svg viewBox="0 0 16 16" fill="none" xmlns="http://www.w3.org/2000/svg">
  <path fill-rule="evenodd" clip-rule="evenodd" d="M7.99998 0C8.2919 1.19209e-07 8.56925 0.127563 8.75924 0.34921C11.7994 3.89605 13.2708 6.90279 13.1234 9.55547C12.9714 12.2929 11.1312 14.2875 8.51447 15.8575C8.19779 16.0475 7.80216 16.0475 7.48548 15.8575C4.86879 14.2875 3.0286 12.2929 2.87652 9.55547C2.72915 6.90279 4.20058 3.89605 7.24072 0.349209C7.4307 0.127563 7.70805 -1.19209e-07 7.99998 0ZM6.99998 13.0911V11.4142L4.86738 9.28161C4.86843 9.33647 4.87046 9.39077 4.87344 9.44453C4.94772 10.7816 5.63305 11.9707 6.99998 13.0911ZM5.33541 6.92122L6.99998 8.58579V3.90464C6.21837 5.02697 5.67714 6.02714 5.33541 6.92122ZM8.99998 13.0911V9.16421L10.8155 7.34869C11.0675 8.12839 11.161 8.82302 11.1265 9.44453C11.0522 10.7816 10.3669 11.9707 8.99998 13.0911ZM9.94015 5.39561C9.6762 4.92406 9.36418 4.42761 8.99998 3.90464V6.33579L9.94015 5.39561Z" fill="#6367AD"/>
</svg>
