<svg viewBox="0 0 16 16" fill="none" xmlns="http://www.w3.org/2000/svg">
  <path fill-rule="evenodd" clip-rule="evenodd"
        d="M8.20759 0.0213956C8.66959 0.119437 9 0.52733 9 0.999611V4.99961H12C12.3385 4.99961 12.654 5.17086 12.8385 5.4547C13.023 5.73853 13.0513 6.09642 12.9138 6.40575L8.91381 15.4057C8.722 15.8373 8.2544 16.0759 7.79241 15.9778C7.33042 15.8798 7 15.4719 7 14.9996V10.9996H4C3.6615 10.9996 3.34597 10.8284 3.16151 10.5445C2.97705 10.2607 2.94871 9.9028 3.08619 9.59347L7.08619 0.593473C7.278 0.161897 7.7456 -0.0766458 8.20759 0.0213956ZM5.53876 8.99961H8C8.55229 8.99961 9 9.44733 9 9.99961V10.2874L9.57235 8.99961L10.4612 6.99961H8C7.44772 6.99961 7 6.5519 7 5.99961V5.71183L6.42765 6.99961L5.53876 8.99961Z"
        fill="#4163DA"/>
</svg>
