<svg viewBox="0 0 16 16" fill="none" xmlns="http://www.w3.org/2000/svg">
  <path fill-rule="evenodd" clip-rule="evenodd" d="M4 4C4 1.79086 5.79086 0 8 0C10.2091 0 12 1.79086 12 4V5.05001C13.1411 5.28164 14 6.29052 14 7.5V13.5C14 14.8807 12.8807 16 11.5 16H4.5C3.11929 16 2 14.8807 2 13.5V7.5C2 6.29052 2.85888 5.28164 4 5.05001V4ZM6 5H10V4C10 2.89543 9.10457 2 8 2C6.89543 2 6 2.89543 6 4V5ZM4.5 7C4.22386 7 4 7.22386 4 7.5V13.5C4 13.7761 4.22386 14 4.5 14H11.5C11.7761 14 12 13.7761 12 13.5V7.5C12 7.22386 11.7761 7 11.5 7H4.5Z" fill="#4163DA"/>
  <path d="M9 9.5C9 10.0523 8.55228 10.5 8 10.5C7.44772 10.5 7 10.0523 7 9.5C7 8.94771 7.44772 8.5 8 8.5C8.55228 8.5 9 8.94771 9 9.5Z" fill="#4163DA"/>
  <path d="M7.56699 9.75C7.75944 9.41667 8.24056 9.41667 8.43301 9.75L9.29904 11.25C9.49149 11.5833 9.25093 12 8.86602 12H7.13397C6.74907 12 6.50851 11.5833 6.70096 11.25L7.56699 9.75Z" fill="#4163DA"/>
</svg>
