<svg width="25" height="24" viewBox="0 0 25 24" fill="none" xmlns="http://www.w3.org/2000/svg">
  <path fill-rule="evenodd" clip-rule="evenodd"
        d="M0.998535 3.75C0.998535 1.67893 2.67747 0 4.74854 0H12.2485C14.3196 0 15.9985 1.67893 15.9985 3.75V6C15.9985 6.82843 15.327 7.5 14.4985 7.5C13.6701 7.5 12.9985 6.82843 12.9985 6V3.75C12.9985 3.33579 12.6627 3 12.2485 3H4.74854C4.33432 3 3.99854 3.33579 3.99854 3.75V20.25C3.99854 20.6642 4.33432 21 4.74854 21H12.2485C12.6627 21 12.9985 20.6642 12.9985 20.25V18C12.9985 17.1716 13.6701 16.5 14.4985 16.5C15.327 16.5 15.9985 17.1716 15.9985 18V20.25C15.9985 22.3211 14.3196 24 12.2485 24H4.74854C2.67747 24 0.998535 22.3211 0.998535 20.25V3.75Z"
        fill="#DA5D41"/>
  <path fill-rule="evenodd" clip-rule="evenodd"
        d="M17.9379 6.43934C18.5237 5.85355 19.4734 5.85355 20.0592 6.43934L24.5592 10.9393C25.145 11.5251 25.145 12.4749 24.5592 13.0607L20.0592 17.5607C19.4734 18.1464 18.5237 18.1464 17.9379 17.5607C17.3521 16.9749 17.3521 16.0251 17.9379 15.4393L19.8772 13.5H9.99854C9.17011 13.5 8.49854 12.8284 8.49854 12C8.49854 11.1716 9.17011 10.5 9.99854 10.5H19.8772L17.9379 8.56066C17.3521 7.97487 17.3521 7.02513 17.9379 6.43934Z"
        fill="#DA5D41"/>
</svg>
