<svg viewBox="0 0 16 16" fill="none" xmlns="http://www.w3.org/2000/svg">
  <path fill-rule="evenodd" clip-rule="evenodd" d="M3.97904 4L7.7154 6.58671C7.88662 6.70524 8.11338 6.70524 8.28461 6.58671L12.021 4H3.97904ZM14 5.06241L9.42303 8.23109C8.56691 8.82378 7.43309 8.82378 6.57698 8.23109L2 5.06241V11.5C2 11.7761 2.22386 12 2.5 12H13.5C13.7761 12 14 11.7761 14 11.5V5.06241ZM0 4.5C0 3.11929 1.11929 2 2.5 2H13.5C14.8807 2 16 3.11929 16 4.5V11.5C16 12.8807 14.8807 14 13.5 14H2.5C1.11929 14 0 12.8807 0 11.5V4.5Z" fill="#2D2F33"/>
</svg>
