<svg viewBox="0 0 16 16" fill="none" xmlns="http://www.w3.org/2000/svg">
  <path fill-rule="evenodd" clip-rule="evenodd"
        d="M0 8C0 4.68629 2.68629 2 6 2H10C13.3137 2 16 4.68629 16 8C16 11.3137 13.3137 14 10 14H1C0.447715 14 0 13.5523 0 13V8ZM6 4C3.79086 4 2 5.79086 2 8V12H10C12.2091 12 14 10.2091 14 8C14 5.79086 12.2091 4 10 4H6Z"
        fill="#2D2F33"/>
  <path d="M6 8C6 8.55228 5.55228 9 5 9C4.44772 9 4 8.55228 4 8C4 7.44772 4.44772 7 5 7C5.55228 7 6 7.44772 6 8Z"
        fill="#2D2F33"/>
  <path d="M9 8C9 8.55228 8.55229 9 8 9C7.44772 9 7 8.55228 7 8C7 7.44772 7.44772 7 8 7C8.55229 7 9 7.44772 9 8Z"
        fill="#2D2F33"/>
  <path
    d="M12 8C12 8.55228 11.5523 9 11 9C10.4477 9 10 8.55228 10 8C10 7.44772 10.4477 7 11 7C11.5523 7 12 7.44772 12 8Z"
    fill="#2D2F33"/>
</svg>
