<svg viewBox="0 0 16 16" fill="none" xmlns="http://www.w3.org/2000/svg">
  <path fill-rule="evenodd" clip-rule="evenodd" d="M13.7071 0.292893C14.0976 0.683417 14.0976 1.31658 13.7071 1.70711L7.41421 8L13.7071 14.2929C14.0976 14.6834 14.0976 15.3166 13.7071 15.7071C13.3166 16.0976 12.6834 16.0976 12.2929 15.7071L5.29289 8.70711C4.90237 8.31658 4.90237 7.68342 5.29289 7.29289L12.2929 0.292893C12.6834 -0.0976311 13.3166 -0.0976311 13.7071 0.292893Z" fill="#6367AD"/>
  <path fill-rule="evenodd" clip-rule="evenodd" d="M3 2C3.55228 2 4 2.44772 4 3V13C4 13.5523 3.55228 14 3 14C2.44772 14 2 13.5523 2 13V3C2 2.44772 2.44772 2 3 2Z" fill="#6367AD"/>
</svg>
