<svg viewBox="0 0 24 14" fill="none" xmlns="http://www.w3.org/2000/svg">
  <path fill-rule="evenodd" clip-rule="evenodd" d="M3.75 3.25C3.33579 3.25 3 3.58579 3 4V10C3 10.4142 3.33579 10.75 3.75 10.75H20.25C20.6642 10.75 21 10.4142 21 10V4C21 3.58579 20.6642 3.25 20.25 3.25H3.75ZM0 4C0 1.92893 1.67893 0.25 3.75 0.25H20.25C22.3211 0.25 24 1.92893 24 4V10C24 12.0711 22.3211 13.75 20.25 13.75H3.75C1.67893 13.75 0 12.0711 0 10L0 4Z" fill="#2D2F33"/>
  <path d="M8.25 7C8.25 7.82843 7.57843 8.5 6.75 8.5C5.92157 8.5 5.25 7.82843 5.25 7C5.25 6.17157 5.92157 5.5 6.75 5.5C7.57843 5.5 8.25 6.17157 8.25 7Z" fill="#2D2F33"/>
  <path d="M13.5 7C13.5 7.82843 12.8284 8.5 12 8.5C11.1716 8.5 10.5 7.82843 10.5 7C10.5 6.17157 11.1716 5.5 12 5.5C12.8284 5.5 13.5 6.17157 13.5 7Z" fill="#2D2F33"/>
  <path d="M18.75 7C18.75 7.82843 18.0784 8.5 17.25 8.5C16.4216 8.5 15.75 7.82843 15.75 7C15.75 6.17157 16.4216 5.5 17.25 5.5C18.0784 5.5 18.75 6.17157 18.75 7Z" fill="#2D2F33"/>
</svg>
