<svg viewBox="0 0 16 16" fill="none" xmlns="http://www.w3.org/2000/svg">
  <path fill-rule="evenodd" clip-rule="evenodd"
        d="M7.99991 2C6.89534 2 5.99991 2.89543 5.99991 4C5.99991 5.10457 6.89534 6 7.99991 6C9.10448 6 9.99991 5.10457 9.99991 4C9.99991 2.89543 9.10448 2 7.99991 2ZM3.99991 4C3.99991 1.79086 5.79077 0 7.99991 0C10.209 0 11.9999 1.79086 11.9999 4C11.9999 6.20914 10.209 8 7.99991 8C5.79077 8 3.99991 6.20914 3.99991 4ZM7.99991 12.25C5.53554 12.25 3.14529 13.368 1.8574 15.5145C1.57325 15.9881 0.958992 16.1416 0.485411 15.8575C0.011831 15.5733 -0.141734 14.9591 0.142414 14.4855C1.85453 11.632 4.96427 10.25 7.99991 10.25C11.0355 10.25 14.1453 11.632 15.8574 14.4855C16.1415 14.9591 15.988 15.5733 15.5144 15.8575C15.0408 16.1416 14.4266 15.9881 14.1424 15.5145C12.8545 13.368 10.4643 12.25 7.99991 12.25Z"
        fill="#BABDF5"/>
</svg>
