<svg viewBox="0 0 16 16" fill="none" xmlns="http://www.w3.org/2000/svg">
  <path fill-rule="evenodd" clip-rule="evenodd"
        d="M7.65951 3.51493C7.94396 4.65275 7.1963 5.75847 6.09314 5.96547C6.4796 7.94098 8.02937 9.49997 10 9.89998V9.64039C10 8.66453 10.9171 7.94849 11.8638 8.18517L15.1513 9.00705C15.6501 9.13175 16 9.5799 16 10.094V10.9594C16 13.2057 14.5626 15.1999 12.4317 15.9102C12.2532 15.9697 12.0664 16 11.8783 16H11.6916C5.23449 16 0 10.7655 0 4.30844V4.1217C0 3.93361 0.0303233 3.74675 0.0898026 3.56831C0.800123 1.43735 2.79434 0 5.04057 0H5.81627C6.38312 0 6.87722 0.385789 7.0147 0.935714L7.65951 3.51493ZM2.05076 4.02676C2.01514 4.11618 2 4.21219 2 4.30844C2 9.66094 6.33906 14 11.6916 14C11.7878 14 11.8838 13.9849 11.9732 13.9492C13.1912 13.4642 14 12.2827 14 10.9594C14 10.8544 13.9285 10.7629 13.8267 10.7374L12.6977 10.4552C12.3433 10.3666 12 10.6347 12 11C12 11.5523 11.5523 12 11 12C7.13401 12 4 8.86599 4 5C4 4.44772 4.44772 4 5 4C5.36533 4 5.63339 3.65667 5.54479 3.30225L5.26255 2.17332C5.23709 2.07146 5.14557 2 5.04057 2C3.71726 2 2.53577 2.80885 2.05076 4.02676Z"
        fill="#2D2F33"/>
</svg>
