<svg viewBox="0 0 16 16" fill="none" xmlns="http://www.w3.org/2000/svg">
  <path fill-rule="evenodd" clip-rule="evenodd" d="M6.29415 9.73137C6.5117 10.239 6.27655 10.8269 5.76892 11.0444L3.53859 12.0003L8 13.9123L12.4614 12.0003L10.2311 11.0444C9.72345 10.8269 9.4883 10.239 9.70586 9.73137C9.92341 9.22374 10.5113 8.98859 11.0189 9.20614L15.3939 11.0811C15.7616 11.2387 16 11.6003 16 12.0003C16 12.4003 15.7616 12.7619 15.3939 12.9194L8.78784 15.7506C8.28474 15.9662 7.71526 15.9662 7.21216 15.7506L0.606081 12.9194C0.238397 12.7619 0 12.4003 0 12.0003C0 11.6003 0.238397 11.2387 0.606081 11.0811L4.98108 9.20614C5.48871 8.98859 6.07659 9.22374 6.29415 9.73137Z" fill="#939599"/>
  <path fill-rule="evenodd" clip-rule="evenodd" d="M9.83086 5.78484C10.0484 5.27721 10.6363 5.04206 11.1439 5.25961L15.3939 7.08104C15.7616 7.23862 16 7.60016 16 8.00018C16 8.40021 15.7616 8.76175 15.3939 8.91933L8.78784 11.7505C8.28474 11.9661 7.71526 11.9661 7.21216 11.7505L0.606081 8.91933C0.238397 8.76175 0 8.40021 0 8.00018C0 7.60016 0.238397 7.23862 0.606081 7.08104L4.83525 5.26854C5.34288 5.05098 5.93076 5.28614 6.14831 5.79377C6.36587 6.3014 6.13072 6.88927 5.62309 7.10683L3.53859 8.00018L8 9.91222L12.4614 8.00018L10.3561 7.0979C9.84845 6.88035 9.6133 6.29247 9.83086 5.78484Z" fill="#939599"/>
  <path fill-rule="evenodd" clip-rule="evenodd" d="M7.21216 0.249967C7.71526 0.0343535 8.28474 0.0343536 8.78784 0.249967L15.3939 3.08114C15.7616 3.23872 16 3.60026 16 4.00029C16 4.40032 15.7616 4.76186 15.3939 4.91943L8.78784 7.75061C8.28474 7.96623 7.71526 7.96623 7.21216 7.75061L0.606081 4.91943C0.238397 4.76186 0 4.40032 0 4.00029C0 3.60026 0.238397 3.23872 0.606081 3.08114L7.21216 0.249967ZM3.53859 4.00029L8 5.91232L12.4614 4.00029L8 2.08826L3.53859 4.00029Z" fill="#939599"/>
</svg>
