<svg viewBox="0 0 24 24" fill="none" xmlns="http://www.w3.org/2000/svg">
  <path fill-rule="evenodd" clip-rule="evenodd"
        d="M12 3C9.91782 3 7.90004 3.72198 6.29048 5.04291C4.68092 6.36384 3.57917 8.202 3.17295 10.2442C2.76673 12.2864 3.08119 14.4062 4.06273 16.2426C5.04427 18.0789 6.63217 19.5181 8.55587 20.3149C10.4796 21.1117 12.62 21.2169 14.6126 20.6125C16.6051 20.008 18.3264 18.7314 19.4832 17.0001C20.6401 15.2688 21.1608 13.19 20.9567 11.1178C20.7526 9.04567 19.8363 7.10837 18.364 5.63604C17.7782 5.05025 17.7782 4.1005 18.364 3.51472C18.9498 2.92893 19.8995 2.92893 20.4853 3.51472C22.4484 5.47783 23.6701 8.0609 23.9422 10.8238C24.2144 13.5867 23.5201 16.3585 21.9777 18.6668C20.4352 20.9752 18.1402 22.6774 15.4834 23.4833C12.8267 24.2892 9.97275 24.149 7.40782 23.0866C4.84289 22.0241 2.72569 20.1052 1.41697 17.6568C0.108243 15.2083 -0.311026 12.3818 0.230595 9.65892C0.772216 6.936 2.24122 4.48512 4.3873 2.72388C6.53338 0.962633 9.22375 8.04663e-07 12 0C12.8284 -1.78814e-07 13.5 0.671572 13.5 1.5C13.5 2.32843 12.8284 3 12 3Z"
        fill="#4163DA"/>
  <path fill-rule="evenodd" clip-rule="evenodd"
        d="M16.5 3.75C16.5 2.92157 17.1716 2.25 18 2.25H22.5C23.3284 2.25 24 2.92157 24 3.75C24 4.57843 23.3284 5.25 22.5 5.25H19.5V8.25C19.5 9.07843 18.8284 9.75 18 9.75C17.1716 9.75 16.5 9.07843 16.5 8.25V3.75Z"
        fill="#4163DA"/>
</svg>
