<svg viewBox="0 0 16 16" fill="none" xmlns="http://www.w3.org/2000/svg">
  <path fill-rule="evenodd" clip-rule="evenodd"
        d="M9 1C9 0.447715 9.44771 2.98023e-08 10 2.98023e-08C10.5523 2.98023e-08 11 0.447715 11 1V3.58579L14.2929 0.292893C14.6834 -0.0976311 15.3166 -0.0976311 15.7071 0.292893C16.0976 0.683417 16.0976 1.31658 15.7071 1.70711L12.4142 5H15C15.5523 5 16 5.44772 16 6C16 6.55228 15.5523 7 15 7H10C9.44771 7 9 6.55228 9 6V1ZM1 11C0.447715 11 2.98023e-08 10.5523 2.98023e-08 10C2.98023e-08 9.44771 0.447715 9 1 9H6C6.55228 9 7 9.44771 7 10V15C7 15.5523 6.55228 16 6 16C5.44772 16 5 15.5523 5 15V12.4142L1.70711 15.7071C1.31658 16.0976 0.683417 16.0976 0.292893 15.7071C-0.0976311 15.3166 -0.0976311 14.6834 0.292893 14.2929L3.58579 11H1Z"
        fill="#6367AD"/>
</svg>
