<svg viewBox="0 0 12 12" fill="none" xmlns="http://www.w3.org/2000/svg">
  <path fill-rule="evenodd" clip-rule="evenodd"
        d="M0 3C0 2.58579 0.335786 2.25 0.75 2.25H11.25C11.6642 2.25 12 2.58579 12 3C12 3.41421 11.6642 3.75 11.25 3.75H0.75C0.335786 3.75 0 3.41421 0 3ZM0 6C0 5.58579 0.335786 5.25 0.75 5.25H11.25C11.6642 5.25 12 5.58579 12 6C12 6.41421 11.6642 6.75 11.25 6.75H0.75C0.335786 6.75 0 6.41421 0 6ZM0 9C0 8.58579 0.335786 8.25 0.75 8.25H11.25C11.6642 8.25 12 8.58579 12 9C12 9.41421 11.6642 9.75 11.25 9.75H0.75C0.335786 9.75 0 9.41421 0 9Z"
        fill="#4163DA"/>
</svg>
