<svg xmlns="http://www.w3.org/2000/svg" width="60" height="60" viewBox="0 0 60 60">
  <g fill="none" fill-rule="nonzero" stroke="#979797" stroke-width="1.5" transform="translate(7 9)">
    <path
      d="M3.063 39.444c-.475 0-.475 0-.475-.852V22.451c0-.895 0-.895.475-.895h17.054c.471 0 .471 0 .471.862v16.174c0 .852 0 .852-.47.852H3.062zM11.64 24.99a.064.064 0 0 0-.026-.017c-.098-.024-.175-.005-.23.056a29.461 29.461 0 0 0-1.4 1.668c-1.951 2.486-1.951 3.287-2.164 3.972-.142.457-.142 1.054 0 1.79.214.953.687 1.703 1.42 2.247a4.083 4.083 0 0 0 2.352.833 4.083 4.083 0 0 0 2.31-.833c.732-.544 1.205-1.294 1.419-2.247.142-.736.142-1.333 0-1.79-.213-.685 0-1.215-2.165-3.972a21.336 21.336 0 0 0-1.395-1.635.27.27 0 0 0-.121-.072zm1.346-3.434c-.113 0-.113 0-.113-.122v-2.306c0-.128 0-.128.113-.128h4.06c.113 0 .113 0 .113.123v2.31c0 .123 0 .123-.113.123h-4.06zM6.31 39.444h10.558c.292 0 .292 0 .292.122v2.31c0 .124 0 .124-.292.124H6.31c-.293 0-.293 0-.293-.128v-2.306c0-.122 0-.122.293-.122zM23.168 25.63l-.016 9.746c0 .269 0 .269-.122.269l-2.31-.004c-.124 0-.124 0-.123-.27l.016-9.745c0-.271 0-.271.128-.27l2.306.003c.122 0 .122 0 .121.271zm-20.588 0l-.016 9.746c0 .269 0 .269-.123.269l-2.31-.004c-.123 0-.123 0-.123-.27l.016-9.745c0-.271 0-.271.129-.27l2.306.003c.121 0 .121 0 .12.271zm3.55-4.074h4.06c.112 0 .112 0 .112-.122v-2.31c0-.124 0-.124-.112-.124H6.13c-.113 0-.113 0-.113.128v2.306c0 .122 0 .122.113.122zM25.063 20.928c-.475 0-.475 0-.475-.858V3.83c0-.901 0-.901.475-.901h17.054c.471 0 .471 0 .471.867V20.07c0 .858 0 .858-.47.858H25.062zm9.924-18c-.113 0-.113 0-.113-.123V.485c0-.129 0-.129.113-.129h4.06c.113 0 .113 0 .113.124v2.325c0 .123 0 .123-.113.123h-4.06zm-6.677 18h10.558c.292 0 .292 0 .292.122v2.325c0 .124 0 .124-.292.124H28.31c-.293 0-.293 0-.293-.129v-2.32c0-.122 0-.122.293-.122zm16.866-13.87l-.016 9.745c0 .27 0 .27-.123.27l-2.325-.005c-.124 0-.124 0-.123-.269l.016-9.745c0-.271 0-.271.13-.271l2.32.004c.122 0 .122 0 .121.271zm-20.588 0l-.017 9.745c0 .27 0 .27-.122.27l-2.325-.005c-.124 0-.124 0-.124-.269l.016-9.745c0-.271 0-.271.13-.271l2.32.004c.122 0 .122 0 .122.271zm3.542-4.13h4.06c.112 0 .112 0 .112-.123V.48c0-.124 0-.124-.112-.124h-4.06c-.113 0-.113 0-.113.129v2.32c0 .123 0 .123.113.123z"/>
    <path
      d="M31.172 17.707l1.836-4.32c.113-.264.113-.264-.176-.264h-2.524c-.362 0-.362 0-.22-.324l2.45-5.575c.1-.224.1-.224.368-.224h3.717c.311 0 .31.001.154.238l-2.313 3.494c-.218.329-.218.329.172.329h3.1c.333 0 .333 0 .102.244-.15.158-6.11 6.14-6.497 6.528-.258.259-.314.217-.169-.126zM23 31h10.123c.877 0 .877.005.877-.936V24M22 12h-6.442C15 12 15 11.995 15 12.936V19"/>
    <path d="M22 12h-6.442C15 12 15 11.995 15 12.936V19M8 9v10"/>
    <circle cx="8" cy="7" r="2"/>
  </g>
</svg>
