<svg width="72" height="72" viewBox="0 0 72 72" fill="none" xmlns="http://www.w3.org/2000/svg">
  <mask id="mask0" mask-type="alpha" maskUnits="userSpaceOnUse" x="0" y="0" width="72" height="72">
    <rect width="72" height="72" rx="16" fill="#C4C4C4"/>
  </mask>
  <g mask="url(#mask0)">
    <path d="M36 36.0001C36 47.3505 36 57.9413 36 72.0001C52.6122 72.0001 61.6784 72.0001 72 72.0001C72 62.6524 72 43.5742 72 36.0001H36ZM46.2287 43.2917H49.246H52.2581L53.72 43.9967C54.5228 44.3845 55.4674 44.988 55.8197 45.3395C56.4524 45.9708 56.456 45.99 56.3433 46.9155C56.2806 47.4308 56.1251 48.3622 55.996 48.9841C55.6944 50.4365 55.6901 51.9842 55.9856 52.2295C56.1083 52.3313 56.4411 52.4626 56.7269 52.5198C57.4301 52.6604 57.6067 52.9224 57.6757 53.9195C57.7578 55.1078 58.2409 55.9876 59.4487 57.1649C60.3955 58.0878 60.6101 58.214 61.7972 58.5284C62.5157 58.7187 63.1401 58.9122 63.1866 58.9587C63.3721 59.1442 62.8151 60.0837 62.0875 60.8147C61.0579 61.8492 59.7657 62.6954 59.0236 62.8158L58.417 62.9143V62.0434C58.417 60.1573 56.5268 57.7497 54.2436 56.7294C53.058 56.1996 52.9686 56.1209 52.8802 55.5682C52.7969 55.0471 52.6736 54.9231 51.864 54.5261C51.358 54.2779 50.9094 54.0751 50.8687 54.0751C50.7035 54.0751 51.034 54.6882 51.4752 55.2001C51.7336 55.4998 51.947 55.8565 51.947 55.9933C51.947 56.4054 52.7328 57.826 54 59.7053C55.134 61.3871 55.4257 61.9876 55.9337 63.6609C56.1197 64.2732 56.1117 64.4491 55.8819 64.931C55.5515 65.6239 54.7285 66.2632 53.8548 66.5019C53.0551 66.7204 53.0427 66.7187 52.1492 66.4397C50.9407 66.0623 49.6931 64.9602 47.504 62.3389C47.2987 62.0931 47.3235 61.9885 47.7166 61.4731C48.1921 60.8496 49.7417 59.9802 50.2154 60.0733C50.5586 60.1408 50.6648 60.341 51.0345 61.6183C51.3364 62.6609 52.1634 63.6972 52.6935 63.6972C52.931 63.6972 52.9588 63.5954 52.8646 63.0751C52.8027 62.7329 52.562 62.1644 52.3306 61.8101C51.6069 60.7015 49.8912 59.0687 49.1941 58.8291C48.4418 58.5705 47.4677 57.4208 47.4677 56.7917C47.4677 56.0615 46.859 55.1692 45.0726 53.2611L43.3203 51.3844V48.7871V46.1897L44.7719 44.7433L46.2287 43.2917Z" fill="#BABDF5"/>
    <path d="M36 -0.000183105C36 12.1048 36 23.067 36 35.9998C50.336 35.9998 58.9709 35.9998 72 35.9998C72 25.4993 72 10.7279 72 -0.000183105C62.4558 -0.000183105 43.2218 -0.000183105 36 -0.000183105ZM54.7305 9.21725L55.7 9.80308C57.1436 10.6824 57.7606 11.3985 57.8618 12.2967L57.95 13.0433L59.132 13.3284C61.3362 13.8571 64.0709 14.7382 65.0577 15.2363L66.0427 15.7288L65.685 16.4338C65.0086 17.7689 63.8123 19.7958 62.5847 21.6959C61.3724 23.5725 58.9396 27.0047 58.8209 27.0047C58.7876 27.0047 58.2617 26.0902 57.6493 24.9724C56.1324 22.2039 54.935 20.4896 54.6009 20.5968C53.6139 20.9137 52.6745 21.3044 52.6257 21.416C52.3057 22.1465 50.909 23.7882 48.7374 25.9989C47.2984 27.4639 46.106 28.6637 46.083 28.6637C46.0601 28.6637 45.4287 28.0478 44.6833 27.295L43.3302 25.9263L43.9938 24.848C45.0021 23.209 46.0701 21.0314 46.363 20.0266C46.567 19.3268 46.8921 18.8374 47.8042 17.8388L48.9759 16.5531L48.8618 15.4851L48.7478 14.4223L50.1735 12.4367C51.2398 10.9522 51.7111 10.426 52.0554 10.3423C52.3083 10.2807 53.0168 10.004 53.6262 9.72532L54.7305 9.21725Z" fill="#6367AD"/>
    <path d="M0 36.0001C0 54.8847 0 58.159 0 72.0001C22.6955 72.0001 23.591 72.0001 36 72.0001C36 49.7555 36 45.0076 36 36.0001C29.2382 36.0001 8.35522 36.0001 0 36.0001ZM26.5017 43.2997C26.6662 43.2282 26.8869 43.4344 27.6422 44.1966L28.6947 45.2594L28.3421 45.6119C28.1495 45.8045 27.9948 46.1341 27.9948 46.3481C27.9948 46.7934 27.5227 47.2864 27.0979 47.2864C26.5618 47.2864 26.2067 47.6056 26.0973 48.1885C25.9777 48.8259 25.4763 49.2772 24.8842 49.2772C24.6422 49.2772 24.4346 49.4229 24.3191 49.6764C24.1202 50.1128 24.1258 50.1341 25.2263 52.113C25.5599 52.7129 25.8756 53.5341 25.9262 53.9379L26.0195 54.6689L24.3346 56.079C22.1139 57.9362 18.6879 61.3444 16.6566 63.7156C15.759 64.7634 14.9657 65.6435 14.894 65.67C14.6855 65.7473 14.8817 64.3794 15.2361 63.2801C15.6214 62.0852 16.6511 60.4852 18.6267 58.0076C20.4366 55.7378 21.5457 54.0858 21.4833 53.7616C21.3927 53.2915 20.8442 53.3993 19.9798 54.052C19.5047 54.4107 17.8925 55.8347 16.3974 57.2196C14.9024 58.6045 13.1848 60.111 12.5818 60.5635C11.4843 61.3871 9.58004 62.4922 9.58004 62.3054C9.58004 62.1168 10.2912 60.8042 10.7828 60.0865C11.5037 59.0342 12.9218 57.3685 14.9458 55.2029C17.1826 52.8096 18.5582 51.0932 18.4971 50.7703C18.3515 50.001 17.0756 50.7169 13.5253 53.5491C12.3958 54.4501 11.0253 55.4543 10.4821 55.7835C9.22205 56.5472 7.56278 57.1075 6.74421 57.0433L6.10654 56.9915L7.13822 56.1413C10.1888 53.6283 14.025 49.7721 16.7707 46.4621C17.4734 45.615 18.2222 45.7266 20.3945 46.9961C21.7414 47.7832 22.354 47.7939 22.5771 47.0376C22.8291 46.1837 22.9473 46.0512 23.6866 45.7933C24.2884 45.5834 24.4324 45.4485 24.5576 44.9638C24.7548 44.2 24.9262 44.0121 25.5581 43.8803C25.8484 43.8198 26.1976 43.6299 26.3358 43.4552C26.3959 43.3792 26.4468 43.3235 26.5017 43.2997Z" fill="#6367AD"/>
    <path fill-rule="evenodd" clip-rule="evenodd" d="M0 0L35.9999 3.84062e-05V35.9999L0 36V0ZM26.5437 6.8952C26.5437 6.06584 26.4115 5.73655 25.9112 5.67169C25.7444 5.65007 25.5368 5.65816 25.2787 5.68725C24.206 5.80815 23.9415 6.11252 24.19 6.94185C24.2969 7.29854 24.387 7.73721 24.387 7.91651C24.387 8.34436 23.7539 8.66863 23.0546 8.60084C22.8572 8.5817 22.7295 8.57414 22.6338 8.51484C22.4464 8.39857 22.3823 8.08343 22.1577 7.0922C22.0729 6.71759 21.9692 6.63598 21.5564 6.63598C21.0059 6.63598 20.2496 6.97488 19.9285 7.36178C19.7624 7.56189 19.8006 7.7633 20.1462 8.44531C20.5712 9.28404 20.5734 9.28832 20.2447 9.61697C19.8672 9.99449 19.1947 10.2018 18.819 10.0576C18.6779 10.0035 18.4481 9.68046 18.3058 9.33701C17.914 8.39114 17.8025 8.30187 17.2119 8.47123C16.7191 8.61257 15.7603 9.38428 15.7603 9.6377C15.7603 9.70325 16.0177 10.071 16.3358 10.4516C16.8879 11.1125 16.9033 11.162 16.6727 11.6077C16.4348 12.068 15.5364 12.5291 15.2367 12.3439C15.1522 12.2917 14.8972 11.9599 14.6716 11.6026C14.4065 11.1826 14.1405 10.9493 13.9147 10.9493C13.5572 10.9493 12.2764 12.0965 12.2764 12.4165C12.2764 12.5142 12.5751 12.8335 12.94 13.1268C13.721 13.7544 13.7932 14.2592 13.1941 14.8583C12.6399 15.4125 12.3145 15.3717 11.5818 14.6561C11.0184 14.106 10.9188 14.0635 10.5397 14.2362C10.0805 14.4454 9.45718 15.3463 9.45618 15.8019C9.45585 15.9677 9.72278 16.2218 10.0887 16.4084C11.2203 16.9857 11.3475 17.5191 10.5656 18.3733C10.1366 18.8421 10.0848 18.8386 9.29547 18.3163C8.93881 18.0802 8.51475 17.9168 8.35192 17.9482C7.97397 18.021 7.29951 19.0147 7.29951 19.4983C7.29951 19.9663 7.53852 20.1601 8.39858 20.39C9.20125 20.6046 9.38472 21.0117 9.04662 21.8209C8.73433 22.5683 8.55494 22.6314 7.64167 22.303C7.20044 22.1444 6.71787 22.0591 6.56852 22.1164C6.22871 22.2468 5.97233 22.9085 5.97233 23.6458C5.97233 24.2975 6.30803 24.553 7.1699 24.553C7.477 24.553 7.81732 24.6457 7.92681 24.7552C8.17573 25.0041 8.18855 25.7928 7.94755 26.2431C7.78315 26.5503 7.66611 26.5737 6.76034 26.4712C6.01106 26.3864 5.71798 26.4119 5.61461 26.5749C5.44957 26.8352 5.42531 28.4334 5.5835 28.5916C5.64433 28.6524 10.2368 28.7005 15.7914 28.7005H25.8904L27.2954 27.28L28.7003 25.8595V16.8387C28.8827 11.8813 28.6374 7.77746 28.5604 7.72987C28.4834 7.68229 28.1454 7.71984 27.8086 7.81282C26.7886 8.09447 26.5437 7.91812 26.5437 6.8952ZM26.7144 12.0537C26.2588 12.0964 25.5556 12.2391 24.5526 12.4788C24.3749 12.5212 24.2118 12.5581 24.0629 12.5918C23.4035 12.7407 23.0216 12.827 22.8861 13.0579C22.6996 13.3756 22.9794 13.967 23.6442 15.3721C23.7535 15.6032 23.8733 15.8563 24.003 16.1338C24.7821 17.7993 25.7018 19.7773 26.0508 20.5301C26.5458 21.5975 26.7636 21.8987 27.0307 21.8987C27.2579 21.8987 27.3738 21.787 27.3832 21.5669C27.391 21.3844 27.3988 19.2568 27.3988 16.8388C27.3988 14.4209 27.391 12.3374 27.3832 12.2092C27.3744 12.0645 27.1701 12.0109 26.7144 12.0537ZM16.8336 16.8388C18.0617 15.6141 20.3109 13.9498 20.4937 14.1326C20.5903 14.2291 24.5531 22.7115 24.5531 22.8215C24.5531 22.9083 22.7602 24.726 22.6867 24.7138C22.6619 24.7097 20.7042 23.7997 18.3319 22.6919C15.9595 21.5842 13.9894 20.6575 13.9563 20.6337C13.7748 20.5033 15.6881 17.9811 16.8336 16.8388ZM12.0066 26.4817C12.1662 24.9235 12.8123 22.7983 13.1109 22.8579C13.2433 22.8843 15.2402 23.7801 17.5434 24.8486C21.1969 26.5435 21.7314 26.8404 21.7324 27.166V27.5393H16.8125H11.8977L12.0066 26.4817Z" fill="#BABDF5"/>
  </g>
</svg>
