<svg width="512" height="512" viewBox="0 0 512 512" fill="none" xmlns="http://www.w3.org/2000/svg">
  <path d="M0 0H512V512H0V0Z" fill="#6367AD"/>
  <path fill-rule="evenodd" clip-rule="evenodd" d="M256 160C238.327 160 224 174.327 224 192C224 209.673 238.327 224 256 224C273.674 224 288 209.673 288 192C288 174.327 273.674 160 256 160ZM192 192C192 156.654 220.654 128 256 128C291.347 128 320 156.654 320 192C320 227.346 291.347 256 256 256C220.654 256 192 227.346 192 192ZM256 324C216.571 324 178.327 341.888 157.72 376.232C153.174 383.809 143.346 386.266 135.769 381.72C128.191 377.174 125.734 367.345 130.281 359.768C157.674 314.112 207.43 292 256 292C304.571 292 354.327 314.112 381.72 359.768C386.267 367.345 383.81 377.174 376.232 381.72C368.655 386.266 358.827 383.809 354.281 376.232C333.674 341.888 295.43 324 256 324Z" fill="white"/>
</svg>
