<?xml version="1.0" encoding="UTF-8" standalone="no"?><svg xmlns="http://www.w3.org/2000/svg" xmlns:xlink="http://www.w3.org/1999/xlink"><symbol id="alert" viewBox="0 0 126 120" xmlns="http://www.w3.org/2000/svg"><path fill-rule="evenodd" clip-rule="evenodd" d="M65.0177 3.56685C64.1525 1.92777 61.8475 1.92777 60.9823 3.56685L2.57193 114.217C1.74983 115.774 2.85562 117.662 4.58963 117.662H121.41C123.144 117.662 124.25 115.774 123.428 114.217L65.0177 3.56685ZM58.9646 2.45862C60.6951 -0.819542 65.3049 -0.819538 67.0354 2.45862L125.446 113.108C127.09 116.223 124.878 120 121.41 120H4.58963C1.12161 120 -1.08997 116.223 0.554222 113.108L58.9646 2.45862Z"></path><path fill-rule="evenodd" clip-rule="evenodd" d="M63 107.144C66.7969 107.144 69.8749 104.004 69.8749 100.131C69.8749 96.258 66.7969 93.1183 63 93.1183C59.2031 93.1183 56.1251 96.258 56.1251 100.131C56.1251 104.004 59.2031 107.144 63 107.144ZM63 109.481C68.0625 109.481 72.1665 105.295 72.1665 100.131C72.1665 94.967 68.0625 90.7808 63 90.7808C57.9375 90.7808 53.8335 94.967 53.8335 100.131C53.8335 105.295 57.9375 109.481 63 109.481Z"></path><path fill-rule="evenodd" clip-rule="evenodd" d="M69.8749 72.0805V34.6799C69.8749 30.807 66.7969 27.6673 63 27.6673C59.2031 27.6673 56.1251 30.807 56.1251 34.6799V72.0805C56.1251 75.9535 59.2031 79.0931 63 79.0931C66.7969 79.0931 69.8749 75.9535 69.8749 72.0805ZM63 25.3298C57.9375 25.3298 53.8335 29.516 53.8335 34.6799V72.0805C53.8335 77.2445 57.9375 81.4307 63 81.4307C68.0625 81.4307 72.1665 77.2445 72.1665 72.0805V34.6799C72.1665 29.516 68.0625 25.3298 63 25.3298Z"></path></symbol><symbol id="bin-icon" viewBox="0 0 16 16" xmlns="http://www.w3.org/2000/svg"><path fill-rule="evenodd" clip-rule="evenodd" d="M7.08114 2C6.86592 2 6.67485 2.13772 6.6068 2.34189L6.38743 3H9.61257L9.3932 2.34189C9.32515 2.13771 9.13408 2 8.91886 2H7.08114ZM11.7208 3L11.2906 1.70943C10.9503 0.688575 9.99494 0 8.91886 0H7.08114C6.00506 0 5.04972 0.688576 4.70943 1.70943L4.27924 3H1C0.447715 3 0 3.44772 0 4C0 4.55228 0.447715 5 1 5H2V13.5C2 14.8807 3.11929 16 4.5 16H11.5C12.8807 16 14 14.8807 14 13.5V5H15C15.5523 5 16 4.55228 16 4C16 3.44772 15.5523 3 15 3H11.7208ZM12 5H4V13.5C4 13.7761 4.22386 14 4.5 14H11.5C11.7761 14 12 13.7761 12 13.5V5ZM5.29289 7.29289C5.68342 6.90237 6.31658 6.90237 6.70711 7.29289L8 8.58579L9.29289 7.29289C9.68342 6.90237 10.3166 6.90237 10.7071 7.29289C11.0976 7.68342 11.0976 8.31658 10.7071 8.70711L9.41421 10L10.7071 11.2929C11.0976 11.6834 11.0976 12.3166 10.7071 12.7071C10.3166 13.0976 9.68342 13.0976 9.29289 12.7071L8 11.4142L6.70711 12.7071C6.31658 13.0976 5.68342 13.0976 5.29289 12.7071C4.90237 12.3166 4.90237 11.6834 5.29289 11.2929L6.58579 10L5.29289 8.70711C4.90237 8.31658 4.90237 7.68342 5.29289 7.29289Z"></path></symbol><symbol id="arrow-icon" viewBox="0 0 16 16" xmlns="http://www.w3.org/2000/svg"><path fill-rule="evenodd" clip-rule="evenodd" d="M0.292893 4.29289C0.683417 3.90237 1.31658 3.90237 1.70711 4.29289L7.29289 9.87868C7.68342 10.2692 8.31658 10.2692 8.70711 9.87868L14.2929 4.29289C14.6834 3.90237 15.3166 3.90237 15.7071 4.29289C16.0976 4.68342 16.0976 5.31658 15.7071 5.70711L10.1213 11.2929C8.94975 12.4645 7.05025 12.4645 5.87868 11.2929L0.292893 5.70711C-0.0976311 5.31658 -0.0976311 4.68342 0.292893 4.29289Z"></path></symbol><symbol id="checkmark-icon" viewBox="0 0 64 64" xmlns="http://www.w3.org/2000/svg"><path fill-rule="evenodd" clip-rule="evenodd" d="M62.8284 11.1716C64.3905 12.7337 64.3905 15.2663 62.8284 16.8284L26.8284 52.8284C25.2663 54.3905 22.7337 54.3905 21.1716 52.8284L1.17157 32.8284C-0.390524 31.2663 -0.390524 28.7337 1.17157 27.1716C2.73367 25.6095 5.26633 25.6095 6.82843 27.1716L24 44.3431L57.1716 11.1716C58.7337 9.60948 61.2663 9.60948 62.8284 11.1716Z"></path></symbol><symbol id="circle-icon" width="24" height="24" viewBox="0 0 24 24" xmlns="http://www.w3.org/2000/svg"><circle cx="6.75" cy="12" r="1.5"></circle><circle cx="12" cy="12" r="1.5"></circle><circle cx="17.25" cy="12" r="1.5"></circle><path fill-rule="evenodd" clip-rule="evenodd" d="M12 21C16.9706 21 21 16.9706 21 12C21 7.02944 16.9706 3 12 3C7.02944 3 3 7.02944 3 12C3 16.9706 7.02944 21 12 21ZM12 24C18.6274 24 24 18.6274 24 12C24 5.37258 18.6274 0 12 0C5.37258 0 0 5.37258 0 12C0 18.6274 5.37258 24 12 24Z"></path></symbol><symbol id="clock-icon" viewBox="0 0 64 64" xmlns="http://www.w3.org/2000/svg"><path fill-rule="evenodd" clip-rule="evenodd" d="M32 56C45.2548 56 56 45.2548 56 32C56 18.7452 45.2548 8 32 8C18.7452 8 8 18.7452 8 32C8 45.2548 18.7452 56 32 56ZM32 64C49.6731 64 64 49.6731 64 32C64 14.3269 49.6731 0 32 0C14.3269 0 0 14.3269 0 32C0 49.6731 14.3269 64 32 64Z"></path><path fill-rule="evenodd" clip-rule="evenodd" d="M32 12C34.2091 12 36 13.7909 36 16V26C36 27.1046 36.8954 28 38 28H48C50.2091 28 52 29.7909 52 32C52 34.2091 50.2091 36 48 36H38C32.4772 36 28 31.5228 28 26V16C28 13.7909 29.7909 12 32 12Z"></path><path d="M40 32C40 36.4183 36.4183 40 32 40C27.5817 40 24 36.4183 24 32C24 27.5817 27.5817 24 32 24C36.4183 24 40 27.5817 40 32Z"></path></symbol><symbol id="calendar-icon" viewBox="0 0 16 16" xmlns="http://www.w3.org/2000/svg"><path fill-rule="evenodd" clip-rule="evenodd" d="M5 0C5.55228 0 6 0.447715 6 1V2H10V1C10 0.447715 10.4477 0 11 0C11.5523 0 12 0.447715 12 1V2H13.5C14.8807 2 16 3.11929 16 4.5V12.5C16 13.8807 14.8807 15 13.5 15H2.5C1.11929 15 0 13.8807 0 12.5V4.5C0 3.11929 1.11929 2 2.5 2H4V1C4 0.447715 4.44772 0 5 0ZM4 4H2.5C2.22386 4 2 4.22386 2 4.5V7H14V4.5C14 4.22386 13.7761 4 13.5 4H12C12 4.55228 11.5523 5 11 5C10.4477 5 10 4.55228 10 4H6C6 4.55228 5.55228 5 5 5C4.44772 5 4 4.55228 4 4ZM14 9H2V12.5C2 12.7761 2.22386 13 2.5 13H13.5C13.7761 13 14 12.7761 14 12.5V9Z"></path></symbol><symbol id="chart-icon" viewBox="0 0 24 24" xmlns="http://www.w3.org/2000/svg"><path fill-rule="evenodd" clip-rule="evenodd" d="M1.5 0C2.32843 0 3 0.671573 3 1.5V16.5C3 18.9853 5.01472 21 7.5 21H22.5C23.3284 21 24 21.6716 24 22.5C24 23.3284 23.3284 24 22.5 24H7.5C3.35786 24 0 20.6421 0 16.5V1.5C0 0.671573 0.671573 0 1.5 0Z"></path><rect x="6" y="4.5" width="3" height="13.5" rx="1.5"></rect><rect x="11.25" y="10.5" width="3" height="7.5" rx="1.5"></rect><rect x="16.5" y="7.5" width="3" height="10.5" rx="1.5"></rect></symbol><symbol id="coordinates-icon" viewBox="0 0 16 16" xmlns="http://www.w3.org/2000/svg"><path fill-rule="evenodd" clip-rule="evenodd" d="M8 2C5.79086 2 4 3.79086 4 6V6.30116C4 7.19762 4.28011 8.07168 4.80116 8.80116L8 13.2795L11.1988 8.80116C11.7199 8.07168 12 7.19762 12 6.30116V6C12 3.79086 10.2091 2 8 2ZM2 6C2 2.68629 4.68629 0 8 0C11.3137 0 14 2.68629 14 6V6.30116C14 7.61447 13.5896 8.89496 12.8263 9.96364L8.81373 15.5812C8.62602 15.844 8.32295 16 8 16C7.67705 16 7.37398 15.844 7.18627 15.5812L3.1737 9.96364C2.41035 8.89496 2 7.61447 2 6.30116V6Z"></path><path d="M10 6C10 7.10457 9.10457 8 8 8C6.89543 8 6 7.10457 6 6C6 4.89543 6.89543 4 8 4C9.10457 4 10 4.89543 10 6Z"></path></symbol><symbol id="copy-icon" viewBox="0 0 64 64" xmlns="http://www.w3.org/2000/svg"><path fill-rule="evenodd" clip-rule="evenodd" d="M20 10C20 4.47715 24.4772 0 30 0H54C59.5228 0 64 4.47715 64 10V38C64 43.5229 59.5228 48 54 48H44V54C44 59.5228 39.5228 64 34 64H10C4.47715 64 0 59.5229 0 54V25.5C0 19.9772 4.47715 15.5 10 15.5H20V10ZM28 15.5H34C39.5228 15.5 44 19.9772 44 25.5V40H54C55.1046 40 56 39.1046 56 38V10C56 8.89543 55.1046 8 54 8H30C28.8954 8 28 8.89543 28 10V15.5ZM10 23.5C8.89543 23.5 8 24.3954 8 25.5V54C8 55.1046 8.89543 56 10 56H34C35.1046 56 36 55.1046 36 54V25.5C36 24.3954 35.1046 23.5 34 23.5H10Z"></path></symbol><symbol id="cross-circle-icon" viewBox="0 0 16 16" xmlns="http://www.w3.org/2000/svg"><path fill-rule="evenodd" clip-rule="evenodd" d="M8 14C9.29583 14 10.4957 13.5892 11.4765 12.8907C12.0231 12.5016 12.5016 12.0231 12.8907 11.4765C13.5892 10.4957 14 9.29583 14 8C14 6.70417 13.5892 5.50428 12.8907 4.52347C12.5016 3.97695 12.0231 3.49844 11.4765 3.10925C10.4957 2.41079 9.29583 2 8 2C6.70417 2 5.50428 2.41079 4.52347 3.10925C3.97695 3.49844 3.49844 3.97695 3.10925 4.52347C2.41079 5.50428 2 6.70417 2 8C2 9.29583 2.41079 10.4957 3.10925 11.4765C3.49844 12.0231 3.97695 12.5016 4.52347 12.8907C5.50428 13.5892 6.70417 14 8 14ZM8 16C12.4183 16 16 12.4183 16 8C16 3.58172 12.4183 5.96046e-08 8 5.96046e-08C3.58172 5.96046e-08 5.96046e-08 3.58172 5.96046e-08 8C5.96046e-08 12.4183 3.58172 16 8 16Z"></path><path d="M6.40901 7.82322C6.50664 7.92085 6.50664 8.07915 6.40901 8.17678L3.10925 11.4765C3.49844 12.0231 3.97695 12.5016 4.52347 12.8907L7.82322 9.59099C7.92085 9.49336 8.07915 9.49336 8.17678 9.59099L11.4765 12.8907C12.0231 12.5016 12.5016 12.0231 12.8907 11.4765L9.59099 8.17678C9.49336 8.07914 9.49336 7.92085 9.59099 7.82322L12.8907 4.52347C12.5016 3.97695 12.0231 3.49844 11.4765 3.10925L8.17678 6.40901C8.07914 6.50664 7.92085 6.50664 7.82322 6.40901L4.52347 3.10925C3.97695 3.49844 3.49844 3.97695 3.10925 4.52347L6.40901 7.82322Z"></path></symbol><symbol id="cross-icon" viewBox="0 0 16 16" xmlns="http://www.w3.org/2000/svg"><path fill-rule="evenodd" clip-rule="evenodd" d="M2.29289 2.29289C2.68342 1.90237 3.31658 1.90237 3.70711 2.29289L8 6.58579L12.2929 2.29289C12.6834 1.90237 13.3166 1.90237 13.7071 2.29289C14.0976 2.68342 14.0976 3.31658 13.7071 3.70711L9.41421 8L13.7071 12.2929C14.0976 12.6834 14.0976 13.3166 13.7071 13.7071C13.3166 14.0976 12.6834 14.0976 12.2929 13.7071L8 9.41421L3.70711 13.7071C3.31658 14.0976 2.68342 14.0976 2.29289 13.7071C1.90237 13.3166 1.90237 12.6834 2.29289 12.2929L6.58579 8L2.29289 3.70711C1.90237 3.31658 1.90237 2.68342 2.29289 2.29289Z"></path></symbol><symbol id="document-icon" viewBox="0 0 64 64" xmlns="http://www.w3.org/2000/svg"><path fill-rule="evenodd" clip-rule="evenodd" d="M8 4C8 1.79086 9.79086 0 12 0H36C37.0609 0 38.0783 0.421427 38.8284 1.17157L54.8284 17.1716C55.5786 17.9217 56 18.9391 56 20V60C56 62.2091 54.2091 64 52 64H12C9.79086 64 8 62.2091 8 60V4ZM16 8V56H48V24H36C33.7909 24 32 22.2091 32 20V8H16ZM40 13.6569L42.3431 16H40V13.6569Z"></path></symbol><symbol id="door-icon" viewBox="0 0 16 16" xmlns="http://www.w3.org/2000/svg"><path fill-rule="evenodd" clip-rule="evenodd" d="M2 2.5C2 1.11929 3.11929 0 4.5 0H11.5C12.8807 0 14 1.11929 14 2.5V13.5C14 14.8807 12.8807 16 11.5 16H4.5C3.11929 16 2 14.8807 2 13.5V2.5ZM4.5 2C4.22386 2 4 2.22386 4 2.5V13.5C4 13.7761 4.22386 14 4.5 14H11.5C11.7761 14 12 13.7761 12 13.5V2.5C12 2.22386 11.7761 2 11.5 2H4.5Z"></path><path d="M9 8C9 7.44772 9.44772 7 10 7C10.5523 7 11 7.44772 11 8C11 8.55228 10.5523 9 10 9C9.44772 9 9 8.55228 9 8Z"></path><path fill-rule="evenodd" clip-rule="evenodd" d="M9.25 8C9.25 8.41421 9.58579 8.75 10 8.75C10.4142 8.75 10.75 8.41421 10.75 8C10.75 7.58579 10.4142 7.25 10 7.25C9.58579 7.25 9.25 7.58579 9.25 8ZM10 7C9.44772 7 9 7.44772 9 8C9 8.55228 9.44772 9 10 9C10.5523 9 11 8.55228 11 8C11 7.44772 10.5523 7 10 7Z"></path></symbol><symbol id="dots-triangle-icon" viewBox="0 0 12 12" xmlns="http://www.w3.org/2000/svg"><path d="M0 2.0625C0 1.23407 0.671573 0.5625 1.5 0.5625C2.32843 0.5625 3 1.23407 3 2.0625C3 2.89093 2.32843 3.5625 1.5 3.5625C0.671573 3.5625 0 2.89093 0 2.0625Z"></path><path d="M9 2.0625C9 1.23407 9.67157 0.5625 10.5 0.5625C11.3284 0.5625 12 1.23407 12 2.0625C12 2.89093 11.3284 3.5625 10.5 3.5625C9.67157 3.5625 9 2.89093 9 2.0625Z"></path><path d="M4.5 2.0625C4.5 1.23407 5.17157 0.5625 6 0.5625C6.82843 0.5625 7.5 1.23407 7.5 2.0625C7.5 2.89093 6.82843 3.5625 6 3.5625C5.17157 3.5625 4.5 2.89093 4.5 2.0625Z"></path><path d="M2.25 6C2.25 5.17157 2.92157 4.5 3.75 4.5C4.57843 4.5 5.25 5.17157 5.25 6C5.25 6.82843 4.57843 7.5 3.75 7.5C2.92157 7.5 2.25 6.82843 2.25 6Z"></path><path d="M4.5 9.9375C4.5 9.10907 5.17157 8.4375 6 8.4375C6.82843 8.4375 7.5 9.10907 7.5 9.9375C7.5 10.7659 6.82843 11.4375 6 11.4375C5.17157 11.4375 4.5 10.7659 4.5 9.9375Z"></path><path d="M6.75 6C6.75 5.17157 7.42157 4.5 8.25 4.5C9.07843 4.5 9.75 5.17157 9.75 6C9.75 6.82843 9.07843 7.5 8.25 7.5C7.42157 7.5 6.75 6.82843 6.75 6Z"></path></symbol><symbol id="equipment-icon" viewBox="0 0 16 16" xmlns="http://www.w3.org/2000/svg"><path fill-rule="evenodd" clip-rule="evenodd" d="M8.50017 1.00011C8.50017 0.447821 8.94788 0.000105848 9.50017 0.000105848H14.5002C15.0525 0.000105848 15.5002 0.447821 15.5002 1.00011V15.0001C15.5002 15.5524 15.0525 16.0001 14.5002 16.0001H9.50017C8.94788 16.0001 8.50017 15.5524 8.50017 15.0001V1.00011ZM10.5002 2.00011V14.0001H13.5002V13.0001H12.5002C11.9479 13.0001 11.5002 12.5524 11.5002 12.0001C11.5002 11.4478 11.9479 11.0001 12.5002 11.0001H13.5002V10.0001H12.5002C11.9479 10.0001 11.5002 9.55239 11.5002 9.00011C11.5002 8.44782 11.9479 8.00011 12.5002 8.00011H13.5002V7.00011H12.5002C11.9479 7.00011 11.5002 6.55239 11.5002 6.00011C11.5002 5.44782 11.9479 5.00011 12.5002 5.00011H13.5002V2.00011H10.5002Z"></path><path fill-rule="evenodd" clip-rule="evenodd" d="M1.94022 15.8771C1.57436 15.7791 1.29528 15.4828 1.21934 15.1117L0.546913 11.8257C0.51579 11.6736 0.520505 11.5163 0.560686 11.3664L3.4077 0.741185C3.55064 0.207718 4.09897 -0.108864 4.63244 0.0340783L7.53022 0.810535C8.06368 0.953477 8.38027 1.50181 8.23732 2.03528L5.39031 12.6605C5.35013 12.8104 5.27559 12.949 5.17259 13.0651L2.94725 15.5747C2.69594 15.8581 2.30609 15.9752 1.94022 15.8771ZM3.51956 11.9148L5.2702 5.38135L4.30427 5.12253L2.55364 11.656L2.77778 12.7513L3.51956 11.9148ZM4.82191 3.19067L5.78783 3.44949L6.04665 2.48357L5.08073 2.22475L4.82191 3.19067Z"></path></symbol><symbol id="dragger-icon" width="6" height="6" viewBox="0 0 6 6" xmlns="http://www.w3.org/2000/svg"><path fill-rule="evenodd" clip-rule="evenodd" d="M5.5 0C5.77614 0 6 0.223857 6 0.5C6 1.22227 5.85774 1.93747 5.58134 2.60476C5.30494 3.27205 4.89981 3.87837 4.38909 4.38909C3.87836 4.89981 3.27205 5.30494 2.60476 5.58134C1.93747 5.85774 1.22227 6 0.5 6C0.223857 6 0 5.77614 0 5.5C0 5.22386 0.223857 5 0.5 5C1.09095 5 1.67611 4.8836 2.22208 4.65746C2.76804 4.43131 3.26412 4.09984 3.68198 3.68198C4.09984 3.26412 4.43131 2.76804 4.65746 2.22208C4.8836 1.67611 5 1.09095 5 0.5C5 0.223857 5.22386 0 5.5 0Z"></path><path fill-rule="evenodd" clip-rule="evenodd" d="M3.5 0C3.77614 0 4 0.223858 4 0.5C4 0.959627 3.90947 1.41475 3.73358 1.83939C3.55769 2.26403 3.29988 2.64987 2.97487 2.97487C2.64987 3.29988 2.26403 3.55769 1.83939 3.73358C1.41475 3.90947 0.959627 4 0.5 4C0.223858 4 0 3.77614 0 3.5C2.38419e-07 3.22386 0.223858 3 0.5 3C0.828305 3 1.15339 2.93534 1.45671 2.8097C1.76002 2.68406 2.03562 2.49991 2.26777 2.26777C2.49991 2.03562 2.68406 1.76002 2.8097 1.45671C2.93534 1.15339 3 0.828305 3 0.5C3 0.223858 3.22386 0 3.5 0Z"></path></symbol><symbol id="edit-icon" viewBox="0 0 25 25" xmlns="http://www.w3.org/2000/svg"><path fill-rule="evenodd" clip-rule="evenodd" d="M17.364 1.01513C18.682 -0.302896 20.8189 -0.302892 22.137 1.01513L23.9853 2.86348C25.3033 4.1815 25.3033 6.31843 23.9853 7.63645L10.2143 21.4075C9.63969 21.9821 8.9544 22.4339 8.19996 22.7357L5.61964 23.7678C2.86459 24.8699 0.130568 22.1358 1.23259 19.3808L2.26472 16.8005C2.5665 16.046 3.01837 15.3607 3.59294 14.7862L17.364 1.01513ZM20.0156 3.13645C19.8692 2.99 19.6318 2.99 19.4853 3.13645L18.1218 4.49996L20.5005 6.87864L21.864 5.51513C22.0104 5.36868 22.0104 5.13124 21.864 4.9848L20.0156 3.13645ZM18.3792 8.99996L16.0005 6.62128L5.71426 16.9075C5.42697 17.1948 5.20104 17.5374 5.05015 17.9146L4.01802 20.495C3.89557 20.8011 4.19935 21.1049 4.50547 20.9824L7.08579 19.9503C7.46301 19.7994 7.80565 19.5735 8.09294 19.2862L18.3792 8.99996Z"></path></symbol><symbol id="download-icon" viewBox="0 0 16 16" xmlns="http://www.w3.org/2000/svg"><path fill-rule="evenodd" clip-rule="evenodd" d="M1 10C1.55228 10 2 10.4477 2 11V13.5C2 13.7761 2.22386 14 2.5 14H13.5C13.7761 14 14 13.7761 14 13.5V11C14 10.4477 14.4477 10 15 10C15.5523 10 16 10.4477 16 11V13.5C16 14.8807 14.8807 16 13.5 16H2.5C1.11929 16 0 14.8807 0 13.5V11C0 10.4477 0.447715 10 1 10Z"></path><path fill-rule="evenodd" clip-rule="evenodd" d="M8 0C8.55228 0 9 0.447715 9 1V8.58579L11.2929 6.29289C11.6834 5.90237 12.3166 5.90237 12.7071 6.29289C13.0976 6.68342 13.0976 7.31658 12.7071 7.70711L8.70711 11.7071C8.31658 12.0976 7.68342 12.0976 7.29289 11.7071L3.29289 7.70711C2.90237 7.31658 2.90237 6.68342 3.29289 6.29289C3.68342 5.90237 4.31658 5.90237 4.70711 6.29289L7 8.58579V1C7 0.447715 7.44772 0 8 0Z"></path></symbol><symbol id="expand-icon" viewBox="0 0 16 16" xmlns="http://www.w3.org/2000/svg"><path fill-rule="evenodd" clip-rule="evenodd" d="M10 2C9.44771 2 9 1.55228 9 1C9 0.447715 9.44771 0 10 0H15C15.5523 0 16 0.447715 16 1V6C16 6.55228 15.5523 7 15 7C14.4477 7 14 6.55228 14 6V3.41421L3.41421 14H6C6.55228 14 7 14.4477 7 15C7 15.5523 6.55228 16 6 16H1C0.447715 16 0 15.5523 0 15V10C0 9.44771 0.447715 9 1 9C1.55228 9 2 9.44771 2 10V12.5858L12.5858 2H10Z"></path></symbol><symbol id="export-icon" viewBox="0 0 14 16" xmlns="http://www.w3.org/2000/svg"><path fill-rule="evenodd" clip-rule="evenodd" d="M6.29289 0.292893C6.68342 -0.0976311 7.31658 -0.0976311 7.70711 0.292893L9.70711 2.29289C10.0976 2.68342 10.0976 3.31658 9.70711 3.70711C9.31658 4.09763 8.68342 4.09763 8.29289 3.70711L8 3.41421V10C8 10.5523 7.55228 11 7 11C6.44772 11 6 10.5523 6 10V3.41421L5.70711 3.70711C5.31658 4.09763 4.68342 4.09763 4.29289 3.70711C3.90237 3.31658 3.90237 2.68342 4.29289 2.29289L6.29289 0.292893ZM3.5 7C2.94772 7 2.5 7.44772 2.5 8V13C2.5 13.5523 2.94772 14 3.5 14H10.5C11.0523 14 11.5 13.5523 11.5 13V8C11.5 7.44772 11.0523 7 10.5 7H10C9.44772 7 9 6.55228 9 6C9 5.44772 9.44772 5 10 5H10.5C12.1569 5 13.5 6.34315 13.5 8V13C13.5 14.6569 12.1569 16 10.5 16H3.5C1.84315 16 0.5 14.6569 0.5 13V8C0.5 6.34315 1.84315 5 3.5 5H4C4.55228 5 5 5.44772 5 6C5 6.55228 4.55228 7 4 7H3.5Z"></path></symbol><symbol id="eye-icon" viewBox="0 0 16 16" xmlns="http://www.w3.org/2000/svg"><path fill-rule="evenodd" clip-rule="evenodd" d="M8 2.875C10.6825 2.875 13.1837 4.51546 15.7399 7.32733C16.0867 7.70875 16.0867 8.29125 15.7399 8.67267C13.1837 11.4845 10.6825 13.125 8 13.125C5.31748 13.125 2.8163 11.4845 0.26006 8.67267C-0.0866866 8.29125 -0.0866866 7.70875 0.26006 7.32733C2.8163 4.51546 5.31748 2.875 8 2.875ZM2.37431 8C4.53374 10.202 6.3423 11.125 8 11.125C9.6577 11.125 11.4663 10.202 13.6257 8C11.4663 5.79803 9.6577 4.875 8 4.875C6.3423 4.875 4.53374 5.79803 2.37431 8Z"></path><path d="M10 8C10 9.10457 9.10457 10 8 10C6.89543 10 6 9.10457 6 8C6 6.89543 6.89543 6 8 6C9.10457 6 10 6.89543 10 8Z"></path></symbol><symbol id="file-icon" viewBox="0 0 16 16" xmlns="http://www.w3.org/2000/svg"><path fill-rule="evenodd" clip-rule="evenodd" d="M2 1C2 0.447715 2.44772 0 3 0H9C9.26522 0 9.51957 0.105357 9.70711 0.292893L13.7071 4.29289C13.8946 4.48043 14 4.73478 14 5V15C14 15.5523 13.5523 16 13 16H3C2.44772 16 2 15.5523 2 15V1ZM4 2V14H12V6H9C8.44772 6 8 5.55228 8 5V2H4ZM10 3.41421L10.5858 4H10V3.41421Z"></path></symbol><symbol id="filter-toggle-icon" viewBox="0 0 12 12" xmlns="http://www.w3.org/2000/svg"><path fill-rule="evenodd" clip-rule="evenodd" d="M5.46957 11.7803C5.76246 12.0732 6.23734 12.0732 6.53023 11.7803L10.1476 8.16291C10.7382 7.57232 10.32 6.5625 9.48473 6.5625H2.51506C1.67984 6.5625 1.26156 7.57232 1.85215 8.16291L5.46957 11.7803ZM3.87306 8.0625H8.12674L5.9999 10.1893L3.87306 8.0625Z"></path><path fill-rule="evenodd" clip-rule="evenodd" d="M5.46957 0.21967C5.76246 -0.0732233 6.23734 -0.0732233 6.53023 0.21967L10.1476 3.83709C10.7382 4.42768 10.32 5.4375 9.48473 5.4375H2.51506C1.67984 5.4375 1.26156 4.42768 1.85215 3.83709L5.46957 0.21967ZM3.87306 3.9375H8.12674L5.9999 1.81066L3.87306 3.9375Z"></path></symbol><symbol id="info-icon" viewBox="0 0 16 16" xmlns="http://www.w3.org/2000/svg"><path fill-rule="evenodd" clip-rule="evenodd" d="M8 14C11.3137 14 14 11.3137 14 8C14 4.68629 11.3137 2 8 2C4.68629 2 2 4.68629 2 8C2 11.3137 4.68629 14 8 14ZM8 16C12.4183 16 16 12.4183 16 8C16 3.58172 12.4183 0 8 0C3.58172 0 0 3.58172 0 8C0 12.4183 3.58172 16 8 16Z"></path><path d="M9 5C9 5.55228 8.55229 6 8 6C7.44772 6 7 5.55228 7 5C7 4.44772 7.44772 4 8 4C8.55229 4 9 4.44772 9 5Z"></path><path d="M7 8C7 7.44772 7.44772 7 8 7C8.55228 7 9 7.44772 9 8V11C9 11.5523 8.55228 12 8 12C7.44772 12 7 11.5523 7 11V8Z"></path></symbol><symbol id="leaf-icon" viewBox="0 0 16 16" xmlns="http://www.w3.org/2000/svg"><path fill-rule="evenodd" clip-rule="evenodd" d="M7.99998 0C8.2919 1.19209e-07 8.56925 0.127563 8.75924 0.34921C11.7994 3.89605 13.2708 6.90279 13.1234 9.55547C12.9714 12.2929 11.1312 14.2875 8.51447 15.8575C8.19779 16.0475 7.80216 16.0475 7.48548 15.8575C4.86879 14.2875 3.0286 12.2929 2.87652 9.55547C2.72915 6.90279 4.20058 3.89605 7.24072 0.349209C7.4307 0.127563 7.70805 -1.19209e-07 7.99998 0ZM6.99998 13.0911V11.4142L4.86738 9.28161C4.86843 9.33647 4.87046 9.39077 4.87344 9.44453C4.94772 10.7816 5.63305 11.9707 6.99998 13.0911ZM5.33541 6.92122L6.99998 8.58579V3.90464C6.21837 5.02697 5.67714 6.02714 5.33541 6.92122ZM8.99998 13.0911V9.16421L10.8155 7.34869C11.0675 8.12839 11.161 8.82302 11.1265 9.44453C11.0522 10.7816 10.3669 11.9707 8.99998 13.0911ZM9.94015 5.39561C9.6762 4.92406 9.36418 4.42761 8.99998 3.90464V6.33579L9.94015 5.39561Z"></path></symbol><symbol id="lightning-icon" viewBox="0 0 16 16" xmlns="http://www.w3.org/2000/svg"><path fill-rule="evenodd" clip-rule="evenodd" d="M8.20759 0.0213956C8.66959 0.119437 9 0.52733 9 0.999611V4.99961H12C12.3385 4.99961 12.654 5.17086 12.8385 5.4547C13.023 5.73853 13.0513 6.09642 12.9138 6.40575L8.91381 15.4057C8.722 15.8373 8.2544 16.0759 7.79241 15.9778C7.33042 15.8798 7 15.4719 7 14.9996V10.9996H4C3.6615 10.9996 3.34597 10.8284 3.16151 10.5445C2.97705 10.2607 2.94871 9.9028 3.08619 9.59347L7.08619 0.593473C7.278 0.161897 7.7456 -0.0766458 8.20759 0.0213956ZM5.53876 8.99961H8C8.55229 8.99961 9 9.44733 9 9.99961V10.2874L9.57235 8.99961L10.4612 6.99961H8C7.44772 6.99961 7 6.5519 7 5.99961V5.71183L6.42765 6.99961L5.53876 8.99961Z"></path></symbol><symbol id="lock-icon" viewBox="0 0 16 16" xmlns="http://www.w3.org/2000/svg"><path fill-rule="evenodd" clip-rule="evenodd" d="M4 4C4 1.79086 5.79086 0 8 0C10.2091 0 12 1.79086 12 4V5.05001C13.1411 5.28164 14 6.29052 14 7.5V13.5C14 14.8807 12.8807 16 11.5 16H4.5C3.11929 16 2 14.8807 2 13.5V7.5C2 6.29052 2.85888 5.28164 4 5.05001V4ZM6 5H10V4C10 2.89543 9.10457 2 8 2C6.89543 2 6 2.89543 6 4V5ZM4.5 7C4.22386 7 4 7.22386 4 7.5V13.5C4 13.7761 4.22386 14 4.5 14H11.5C11.7761 14 12 13.7761 12 13.5V7.5C12 7.22386 11.7761 7 11.5 7H4.5Z"></path><path d="M9 9.5C9 10.0523 8.55228 10.5 8 10.5C7.44772 10.5 7 10.0523 7 9.5C7 8.94771 7.44772 8.5 8 8.5C8.55228 8.5 9 8.94771 9 9.5Z"></path><path d="M7.56699 9.75C7.75944 9.41667 8.24056 9.41667 8.43301 9.75L9.29904 11.25C9.49149 11.5833 9.25093 12 8.86602 12H7.13397C6.74907 12 6.50851 11.5833 6.70096 11.25L7.56699 9.75Z"></path></symbol><symbol id="key-icon" width="24" height="24" viewBox="0 0 24 24" xmlns="http://www.w3.org/2000/svg"><path d="M16.5 6C16.5 5.17157 17.1716 4.5 18 4.5C18.8284 4.5 19.5 5.17157 19.5 6C19.5 6.82843 18.8284 7.5 18 7.5C17.1716 7.5 16.5 6.82843 16.5 6Z"></path><path fill-rule="evenodd" clip-rule="evenodd" d="M12 7.5C12 5.01472 14.0147 3 16.5 3C18.9853 3 21 5.01472 21 7.5C21 9.98528 18.9853 12 16.5 12C14.0147 12 12 9.98528 12 7.5ZM16.5 0C12.3579 0 9 3.35786 9 7.5C9 7.78154 9.01551 8.05946 9.04573 8.33295L1.09835 16.2803C0.395087 16.9836 0 17.9374 0 18.932V20.25C0 22.3211 1.67893 24 3.75 24H5.06802C6.06258 24 7.01641 23.6049 7.71967 22.9016L15.6671 14.9543C15.9405 14.9845 16.2185 15 16.5 15C20.6421 15 24 11.6421 24 7.5C24 3.35786 20.6421 0 16.5 0ZM8.25 13.5784C8.25 13.4458 8.30268 13.3186 8.39645 13.2249L9.69801 11.9233C9.92514 11.6962 10.3042 11.7397 10.4969 11.9967C10.9251 12.5673 11.4327 13.0749 12.0033 13.5031C12.2603 13.6958 12.3038 14.0749 12.0767 14.302L10.7751 15.6036C10.6814 15.6973 10.5542 15.75 10.4216 15.75H9C8.58579 15.75 8.25 15.4142 8.25 15V13.5784ZM3.21967 18.4016C3.07902 18.5423 3 18.7331 3 18.932V20.25C3 20.6642 3.33579 21 3.75 21H5.06802C5.26693 21 5.4577 20.921 5.59835 20.7803L7.39091 18.9878C7.54853 18.8302 7.43667 18.5607 7.21377 18.561L6.1875 18.5625C5.77329 18.5625 5.4375 18.2267 5.4375 17.8125L5.43901 16.7862C5.43933 16.5633 5.16985 16.4515 5.01223 16.6091L3.21967 18.4016Z"></path></symbol><symbol id="log-out-icon" width="25" height="24" viewBox="0 0 25 24" xmlns="http://www.w3.org/2000/svg"><path fill-rule="evenodd" clip-rule="evenodd" d="M0.998535 3.75C0.998535 1.67893 2.67747 0 4.74854 0H12.2485C14.3196 0 15.9985 1.67893 15.9985 3.75V6C15.9985 6.82843 15.327 7.5 14.4985 7.5C13.6701 7.5 12.9985 6.82843 12.9985 6V3.75C12.9985 3.33579 12.6627 3 12.2485 3H4.74854C4.33432 3 3.99854 3.33579 3.99854 3.75V20.25C3.99854 20.6642 4.33432 21 4.74854 21H12.2485C12.6627 21 12.9985 20.6642 12.9985 20.25V18C12.9985 17.1716 13.6701 16.5 14.4985 16.5C15.327 16.5 15.9985 17.1716 15.9985 18V20.25C15.9985 22.3211 14.3196 24 12.2485 24H4.74854C2.67747 24 0.998535 22.3211 0.998535 20.25V3.75Z"></path><path fill-rule="evenodd" clip-rule="evenodd" d="M17.9379 6.43934C18.5237 5.85355 19.4734 5.85355 20.0592 6.43934L24.5592 10.9393C25.145 11.5251 25.145 12.4749 24.5592 13.0607L20.0592 17.5607C19.4734 18.1464 18.5237 18.1464 17.9379 17.5607C17.3521 16.9749 17.3521 16.0251 17.9379 15.4393L19.8772 13.5H9.99854C9.17011 13.5 8.49854 12.8284 8.49854 12C8.49854 11.1716 9.17011 10.5 9.99854 10.5H19.8772L17.9379 8.56066C17.3521 7.97487 17.3521 7.02513 17.9379 6.43934Z"></path></symbol><symbol id="mail-icon" viewBox="0 0 16 16" xmlns="http://www.w3.org/2000/svg"><path fill-rule="evenodd" clip-rule="evenodd" d="M3.97904 4L7.7154 6.58671C7.88662 6.70524 8.11338 6.70524 8.28461 6.58671L12.021 4H3.97904ZM14 5.06241L9.42303 8.23109C8.56691 8.82378 7.43309 8.82378 6.57698 8.23109L2 5.06241V11.5C2 11.7761 2.22386 12 2.5 12H13.5C13.7761 12 14 11.7761 14 11.5V5.06241ZM0 4.5C0 3.11929 1.11929 2 2.5 2H13.5C14.8807 2 16 3.11929 16 4.5V11.5C16 12.8807 14.8807 14 13.5 14H2.5C1.11929 14 0 12.8807 0 11.5V4.5Z"></path></symbol><symbol id="manage-icon" width="24" height="24" viewBox="0 0 24 24" xmlns="http://www.w3.org/2000/svg"><path fill-rule="evenodd" clip-rule="evenodd" d="M7.5 15.75H3.75C3.33579 15.75 3 16.0858 3 16.5V20.25C3 20.6642 3.33579 21 3.75 21H7.5C7.91421 21 8.25 20.6642 8.25 20.25V16.5C8.25 16.0858 7.91421 15.75 7.5 15.75ZM3.75 12.75C1.67893 12.75 0 14.4289 0 16.5V20.25C0 22.3211 1.67893 24 3.75 24H7.5C9.57107 24 11.25 22.3211 11.25 20.25V16.5C11.25 14.4289 9.57107 12.75 7.5 12.75H3.75Z"></path><path fill-rule="evenodd" clip-rule="evenodd" d="M7.5 3H3.75C3.33579 3 3 3.33579 3 3.75V7.5C3 7.91421 3.33579 8.25 3.75 8.25H7.5C7.91421 8.25 8.25 7.91421 8.25 7.5V3.75C8.25 3.33579 7.91421 3 7.5 3ZM3.75 0C1.67893 0 0 1.67893 0 3.75V7.5C0 9.57107 1.67893 11.25 3.75 11.25H7.5C9.57107 11.25 11.25 9.57107 11.25 7.5V3.75C11.25 1.67893 9.57107 0 7.5 0H3.75Z"></path><path fill-rule="evenodd" clip-rule="evenodd" d="M20.25 15.75H16.5C16.0858 15.75 15.75 16.0858 15.75 16.5V20.25C15.75 20.6642 16.0858 21 16.5 21H20.25C20.6642 21 21 20.6642 21 20.25V16.5C21 16.0858 20.6642 15.75 20.25 15.75ZM16.5 12.75C14.4289 12.75 12.75 14.4289 12.75 16.5V20.25C12.75 22.3211 14.4289 24 16.5 24H20.25C22.3211 24 24 22.3211 24 20.25V16.5C24 14.4289 22.3211 12.75 20.25 12.75H16.5Z"></path><path fill-rule="evenodd" clip-rule="evenodd" d="M18.375 8.25C19.8247 8.25 21 7.07475 21 5.625C21 4.17525 19.8247 3 18.375 3C16.9253 3 15.75 4.17525 15.75 5.625C15.75 7.07475 16.9253 8.25 18.375 8.25ZM18.375 11.25C21.4816 11.25 24 8.7316 24 5.625C24 2.5184 21.4816 0 18.375 0C15.2684 0 12.75 2.5184 12.75 5.625C12.75 8.7316 15.2684 11.25 18.375 11.25Z"></path></symbol><symbol id="messenger-icon" viewBox="0 0 16 16" xmlns="http://www.w3.org/2000/svg"><path fill-rule="evenodd" clip-rule="evenodd" d="M0 8C0 4.68629 2.68629 2 6 2H10C13.3137 2 16 4.68629 16 8C16 11.3137 13.3137 14 10 14H1C0.447715 14 0 13.5523 0 13V8ZM6 4C3.79086 4 2 5.79086 2 8V12H10C12.2091 12 14 10.2091 14 8C14 5.79086 12.2091 4 10 4H6Z"></path><path d="M6 8C6 8.55228 5.55228 9 5 9C4.44772 9 4 8.55228 4 8C4 7.44772 4.44772 7 5 7C5.55228 7 6 7.44772 6 8Z"></path><path d="M9 8C9 8.55228 8.55229 9 8 9C7.44772 9 7 8.55228 7 8C7 7.44772 7.44772 7 8 7C8.55229 7 9 7.44772 9 8Z"></path><path d="M12 8C12 8.55228 11.5523 9 11 9C10.4477 9 10 8.55228 10 8C10 7.44772 10.4477 7 11 7C11.5523 7 12 7.44772 12 8Z"></path></symbol><symbol id="more-icon" viewBox="0 0 4 16" xmlns="http://www.w3.org/2000/svg"><path fill-rule="evenodd" clip-rule="evenodd" d="M0 14C0 12.8954 0.895431 12 2 12C3.10457 12 4 12.8954 4 14C4 15.1046 3.10457 16 2 16C0.895431 16 0 15.1046 0 14Z"></path><path fill-rule="evenodd" clip-rule="evenodd" d="M0 8C0 6.89543 0.895431 6 2 6C3.10457 6 4 6.89543 4 8C4 9.10457 3.10457 10 2 10C0.895431 10 0 9.10457 0 8Z"></path><path fill-rule="evenodd" clip-rule="evenodd" d="M0 2C0 0.895431 0.895431 0 2 0C3.10457 0 4 0.895431 4 2C4 3.10457 3.10457 4 2 4C0.895431 4 0 3.10457 0 2Z"></path></symbol><symbol id="next-skip" viewBox="0 0 16 16" xmlns="http://www.w3.org/2000/svg"><path fill-rule="evenodd" clip-rule="evenodd" d="M13.7071 0.292893C14.0976 0.683417 14.0976 1.31658 13.7071 1.70711L7.41421 8L13.7071 14.2929C14.0976 14.6834 14.0976 15.3166 13.7071 15.7071C13.3166 16.0976 12.6834 16.0976 12.2929 15.7071L5.29289 8.70711C4.90237 8.31658 4.90237 7.68342 5.29289 7.29289L12.2929 0.292893C12.6834 -0.0976311 13.3166 -0.0976311 13.7071 0.292893Z"></path><path fill-rule="evenodd" clip-rule="evenodd" d="M3 2C3.55228 2 4 2.44772 4 3V13C4 13.5523 3.55228 14 3 14C2.44772 14 2 13.5523 2 13V3C2 2.44772 2.44772 2 3 2Z"></path></symbol><symbol id="notification-icon" width="24" height="24" viewBox="0 0 24 24" xmlns="http://www.w3.org/2000/svg"><path fill-rule="evenodd" clip-rule="evenodd" d="M18 3H6C5.17157 3 4.5 3.67157 4.5 4.5V19.5C4.5 20.3284 5.17157 21 6 21H18C18.8284 21 19.5 20.3284 19.5 19.5V4.5C19.5 3.67157 18.8284 3 18 3ZM6 0C3.51472 0 1.5 2.01472 1.5 4.5V19.5C1.5 21.9853 3.51472 24 6 24H18C20.4853 24 22.5 21.9853 22.5 19.5V4.5C22.5 2.01472 20.4853 0 18 0H6Z"></path><path d="M6 17.25C6 16.4216 6.67157 15.75 7.5 15.75H16.5C17.3284 15.75 18 16.4216 18 17.25C18 18.0784 17.3284 18.75 16.5 18.75H7.5C6.67157 18.75 6 18.0784 6 17.25Z"></path><path d="M6 12.75C6 11.9216 6.67157 11.25 7.5 11.25H11.25C12.0784 11.25 12.75 11.9216 12.75 12.75C12.75 13.5784 12.0784 14.25 11.25 14.25H7.5C6.67157 14.25 6 13.5784 6 12.75Z"></path><path fill-rule="evenodd" clip-rule="evenodd" d="M12 4.5V3L6 3C5.17157 3 4.5 3.67157 4.5 4.5L4.5 6L10.5 6C11.3284 6 12 5.32843 12 4.5ZM15 0H6C3.51472 0 1.5 2.01472 1.5 4.5L1.5 9L10.5 9C12.9853 9 15 6.98528 15 4.5V0Z"></path></symbol><symbol id="password-icon" viewBox="0 0 24 14" xmlns="http://www.w3.org/2000/svg"><path fill-rule="evenodd" clip-rule="evenodd" d="M3.75 3.25C3.33579 3.25 3 3.58579 3 4V10C3 10.4142 3.33579 10.75 3.75 10.75H20.25C20.6642 10.75 21 10.4142 21 10V4C21 3.58579 20.6642 3.25 20.25 3.25H3.75ZM0 4C0 1.92893 1.67893 0.25 3.75 0.25H20.25C22.3211 0.25 24 1.92893 24 4V10C24 12.0711 22.3211 13.75 20.25 13.75H3.75C1.67893 13.75 0 12.0711 0 10L0 4Z"></path><path d="M8.25 7C8.25 7.82843 7.57843 8.5 6.75 8.5C5.92157 8.5 5.25 7.82843 5.25 7C5.25 6.17157 5.92157 5.5 6.75 5.5C7.57843 5.5 8.25 6.17157 8.25 7Z"></path><path d="M13.5 7C13.5 7.82843 12.8284 8.5 12 8.5C11.1716 8.5 10.5 7.82843 10.5 7C10.5 6.17157 11.1716 5.5 12 5.5C12.8284 5.5 13.5 6.17157 13.5 7Z"></path><path d="M18.75 7C18.75 7.82843 18.0784 8.5 17.25 8.5C16.4216 8.5 15.75 7.82843 15.75 7C15.75 6.17157 16.4216 5.5 17.25 5.5C18.0784 5.5 18.75 6.17157 18.75 7Z"></path></symbol><symbol id="person-icon" viewBox="0 0 16 16" xmlns="http://www.w3.org/2000/svg"><path fill-rule="evenodd" clip-rule="evenodd" d="M7.99991 2C6.89534 2 5.99991 2.89543 5.99991 4C5.99991 5.10457 6.89534 6 7.99991 6C9.10448 6 9.99991 5.10457 9.99991 4C9.99991 2.89543 9.10448 2 7.99991 2ZM3.99991 4C3.99991 1.79086 5.79077 0 7.99991 0C10.209 0 11.9999 1.79086 11.9999 4C11.9999 6.20914 10.209 8 7.99991 8C5.79077 8 3.99991 6.20914 3.99991 4ZM7.99991 12.25C5.53554 12.25 3.14529 13.368 1.8574 15.5145C1.57325 15.9881 0.958992 16.1416 0.485411 15.8575C0.011831 15.5733 -0.141734 14.9591 0.142414 14.4855C1.85453 11.632 4.96427 10.25 7.99991 10.25C11.0355 10.25 14.1453 11.632 15.8574 14.4855C16.1415 14.9591 15.988 15.5733 15.5144 15.8575C15.0408 16.1416 14.4266 15.9881 14.1424 15.5145C12.8545 13.368 10.4643 12.25 7.99991 12.25Z"></path></symbol><symbol id="plus-icon" viewBox="0 0 16 16" xmlns="http://www.w3.org/2000/svg"><path fill-rule="evenodd" clip-rule="evenodd" d="M8 0C8.55228 0 9 0.447715 9 1V6C9 6.55228 9.44772 7 10 7H15C15.5523 7 16 7.44772 16 8C16 8.55228 15.5523 9 15 9H10C9.44772 9 9 9.44772 9 10V15C9 15.5523 8.55228 16 8 16C7.44772 16 7 15.5523 7 15V10C7 9.44772 6.55228 9 6 9H1C0.447715 9 0 8.55228 0 8C0 7.44772 0.447715 7 1 7H6C6.55228 7 7 6.55228 7 6V1C7 0.447715 7.44772 0 8 0Z"></path></symbol><symbol id="plan-icon" viewBox="0 0 16 16" xmlns="http://www.w3.org/2000/svg"><path fill-rule="evenodd" clip-rule="evenodd" d="M6.29415 9.73137C6.5117 10.239 6.27655 10.8269 5.76892 11.0444L3.53859 12.0003L8 13.9123L12.4614 12.0003L10.2311 11.0444C9.72345 10.8269 9.4883 10.239 9.70586 9.73137C9.92341 9.22374 10.5113 8.98859 11.0189 9.20614L15.3939 11.0811C15.7616 11.2387 16 11.6003 16 12.0003C16 12.4003 15.7616 12.7619 15.3939 12.9194L8.78784 15.7506C8.28474 15.9662 7.71526 15.9662 7.21216 15.7506L0.606081 12.9194C0.238397 12.7619 0 12.4003 0 12.0003C0 11.6003 0.238397 11.2387 0.606081 11.0811L4.98108 9.20614C5.48871 8.98859 6.07659 9.22374 6.29415 9.73137Z"></path><path fill-rule="evenodd" clip-rule="evenodd" d="M9.83086 5.78484C10.0484 5.27721 10.6363 5.04206 11.1439 5.25961L15.3939 7.08104C15.7616 7.23862 16 7.60016 16 8.00018C16 8.40021 15.7616 8.76175 15.3939 8.91933L8.78784 11.7505C8.28474 11.9661 7.71526 11.9661 7.21216 11.7505L0.606081 8.91933C0.238397 8.76175 0 8.40021 0 8.00018C0 7.60016 0.238397 7.23862 0.606081 7.08104L4.83525 5.26854C5.34288 5.05098 5.93076 5.28614 6.14831 5.79377C6.36587 6.3014 6.13072 6.88927 5.62309 7.10683L3.53859 8.00018L8 9.91222L12.4614 8.00018L10.3561 7.0979C9.84845 6.88035 9.6133 6.29247 9.83086 5.78484Z"></path><path fill-rule="evenodd" clip-rule="evenodd" d="M7.21216 0.249967C7.71526 0.0343535 8.28474 0.0343536 8.78784 0.249967L15.3939 3.08114C15.7616 3.23872 16 3.60026 16 4.00029C16 4.40032 15.7616 4.76186 15.3939 4.91943L8.78784 7.75061C8.28474 7.96623 7.71526 7.96623 7.21216 7.75061L0.606081 4.91943C0.238397 4.76186 0 4.40032 0 4.00029C0 3.60026 0.238397 3.23872 0.606081 3.08114L7.21216 0.249967ZM3.53859 4.00029L8 5.91232L12.4614 4.00029L8 2.08826L3.53859 4.00029Z"></path></symbol><symbol id="phone-icon" viewBox="0 0 16 16" xmlns="http://www.w3.org/2000/svg"><path fill-rule="evenodd" clip-rule="evenodd" d="M7.65951 3.51493C7.94396 4.65275 7.1963 5.75847 6.09314 5.96547C6.4796 7.94098 8.02937 9.49997 10 9.89998V9.64039C10 8.66453 10.9171 7.94849 11.8638 8.18517L15.1513 9.00705C15.6501 9.13175 16 9.5799 16 10.094V10.9594C16 13.2057 14.5626 15.1999 12.4317 15.9102C12.2532 15.9697 12.0664 16 11.8783 16H11.6916C5.23449 16 0 10.7655 0 4.30844V4.1217C0 3.93361 0.0303233 3.74675 0.0898026 3.56831C0.800123 1.43735 2.79434 0 5.04057 0H5.81627C6.38312 0 6.87722 0.385789 7.0147 0.935714L7.65951 3.51493ZM2.05076 4.02676C2.01514 4.11618 2 4.21219 2 4.30844C2 9.66094 6.33906 14 11.6916 14C11.7878 14 11.8838 13.9849 11.9732 13.9492C13.1912 13.4642 14 12.2827 14 10.9594C14 10.8544 13.9285 10.7629 13.8267 10.7374L12.6977 10.4552C12.3433 10.3666 12 10.6347 12 11C12 11.5523 11.5523 12 11 12C7.13401 12 4 8.86599 4 5C4 4.44772 4.44772 4 5 4C5.36533 4 5.63339 3.65667 5.54479 3.30225L5.26255 2.17332C5.23709 2.07146 5.14557 2 5.04057 2C3.71726 2 2.53577 2.80885 2.05076 4.02676Z"></path></symbol><symbol id="popover-triangle" width="9" height="20" viewBox="0 0 9 20" xmlns="http://www.w3.org/2000/svg"><path d="M8 0.203736V0C8.55229 0 9 0.447715 9 1L9 19C9 19.5523 8.55229 20 8 20V19.7963C8 18.6537 7.51141 17.5657 6.65745 16.8066L0.681671 11.4948C-0.213359 10.6992 -0.213359 9.30076 0.681671 8.50518L6.65746 3.19337C7.51141 2.4343 8 1.34629 8 0.203736Z"></path></symbol><symbol id="refresh" viewBox="0 0 24 24" xmlns="http://www.w3.org/2000/svg"><path fill-rule="evenodd" clip-rule="evenodd" d="M12 3C9.91782 3 7.90004 3.72198 6.29048 5.04291C4.68092 6.36384 3.57917 8.202 3.17295 10.2442C2.76673 12.2864 3.08119 14.4062 4.06273 16.2426C5.04427 18.0789 6.63217 19.5181 8.55587 20.3149C10.4796 21.1117 12.62 21.2169 14.6126 20.6125C16.6051 20.008 18.3264 18.7314 19.4832 17.0001C20.6401 15.2688 21.1608 13.19 20.9567 11.1178C20.7526 9.04567 19.8363 7.10837 18.364 5.63604C17.7782 5.05025 17.7782 4.1005 18.364 3.51472C18.9498 2.92893 19.8995 2.92893 20.4853 3.51472C22.4484 5.47783 23.6701 8.0609 23.9422 10.8238C24.2144 13.5867 23.5201 16.3585 21.9777 18.6668C20.4352 20.9752 18.1402 22.6774 15.4834 23.4833C12.8267 24.2892 9.97275 24.149 7.40782 23.0866C4.84289 22.0241 2.72569 20.1052 1.41697 17.6568C0.108243 15.2083 -0.311026 12.3818 0.230595 9.65892C0.772216 6.936 2.24122 4.48512 4.3873 2.72388C6.53338 0.962633 9.22375 8.04663e-07 12 0C12.8284 -1.78814e-07 13.5 0.671572 13.5 1.5C13.5 2.32843 12.8284 3 12 3Z"></path><path fill-rule="evenodd" clip-rule="evenodd" d="M16.5 3.75C16.5 2.92157 17.1716 2.25 18 2.25H22.5C23.3284 2.25 24 2.92157 24 3.75C24 4.57843 23.3284 5.25 22.5 5.25H19.5V8.25C19.5 9.07843 18.8284 9.75 18 9.75C17.1716 9.75 16.5 9.07843 16.5 8.25V3.75Z"></path></symbol><symbol id="shrink-icon" viewBox="0 0 16 16" xmlns="http://www.w3.org/2000/svg"><path fill-rule="evenodd" clip-rule="evenodd" d="M9 1C9 0.447715 9.44771 2.98023e-08 10 2.98023e-08C10.5523 2.98023e-08 11 0.447715 11 1V3.58579L14.2929 0.292893C14.6834 -0.0976311 15.3166 -0.0976311 15.7071 0.292893C16.0976 0.683417 16.0976 1.31658 15.7071 1.70711L12.4142 5H15C15.5523 5 16 5.44772 16 6C16 6.55228 15.5523 7 15 7H10C9.44771 7 9 6.55228 9 6V1ZM1 11C0.447715 11 2.98023e-08 10.5523 2.98023e-08 10C2.98023e-08 9.44771 0.447715 9 1 9H6C6.55228 9 7 9.44771 7 10V15C7 15.5523 6.55228 16 6 16C5.44772 16 5 15.5523 5 15V12.4142L1.70711 15.7071C1.31658 16.0976 0.683417 16.0976 0.292893 15.7071C-0.0976311 15.3166 -0.0976311 14.6834 0.292893 14.2929L3.58579 11H1Z"></path></symbol><symbol id="strips-icon" viewBox="0 0 12 12" xmlns="http://www.w3.org/2000/svg"><path fill-rule="evenodd" clip-rule="evenodd" d="M0 3C0 2.58579 0.335786 2.25 0.75 2.25H11.25C11.6642 2.25 12 2.58579 12 3C12 3.41421 11.6642 3.75 11.25 3.75H0.75C0.335786 3.75 0 3.41421 0 3ZM0 6C0 5.58579 0.335786 5.25 0.75 5.25H11.25C11.6642 5.25 12 5.58579 12 6C12 6.41421 11.6642 6.75 11.25 6.75H0.75C0.335786 6.75 0 6.41421 0 6ZM0 9C0 8.58579 0.335786 8.25 0.75 8.25H11.25C11.6642 8.25 12 8.58579 12 9C12 9.41421 11.6642 9.75 11.25 9.75H0.75C0.335786 9.75 0 9.41421 0 9Z"></path></symbol><symbol id="triangle-up-icon" viewBox="0 0 12 12" xmlns="http://www.w3.org/2000/svg"><path fill-rule="evenodd" clip-rule="evenodd" d="M5.46957 0.21967C5.76246 -0.0732233 6.23734 -0.0732233 6.53023 0.21967L10.1476 3.83709C10.7382 4.42768 10.32 5.4375 9.48473 5.4375H2.51506C1.67984 5.4375 1.26156 4.42768 1.85215 3.83709L5.46957 0.21967ZM3.87306 3.9375H8.12674L5.9999 1.81066L3.87306 3.9375Z"></path></symbol></svg>