<svg width="6" height="6" viewBox="0 0 6 6" fill="none" xmlns="http://www.w3.org/2000/svg">
  <path fill-rule="evenodd" clip-rule="evenodd"
        d="M5.5 0C5.77614 0 6 0.223857 6 0.5C6 1.22227 5.85774 1.93747 5.58134 2.60476C5.30494 3.27205 4.89981 3.87837 4.38909 4.38909C3.87836 4.89981 3.27205 5.30494 2.60476 5.58134C1.93747 5.85774 1.22227 6 0.5 6C0.223857 6 0 5.77614 0 5.5C0 5.22386 0.223857 5 0.5 5C1.09095 5 1.67611 4.8836 2.22208 4.65746C2.76804 4.43131 3.26412 4.09984 3.68198 3.68198C4.09984 3.26412 4.43131 2.76804 4.65746 2.22208C4.8836 1.67611 5 1.09095 5 0.5C5 0.223857 5.22386 0 5.5 0Z"
        fill="#BABDF5"/>
  <path fill-rule="evenodd" clip-rule="evenodd"
        d="M3.5 0C3.77614 0 4 0.223858 4 0.5C4 0.959627 3.90947 1.41475 3.73358 1.83939C3.55769 2.26403 3.29988 2.64987 2.97487 2.97487C2.64987 3.29988 2.26403 3.55769 1.83939 3.73358C1.41475 3.90947 0.959627 4 0.5 4C0.223858 4 0 3.77614 0 3.5C2.38419e-07 3.22386 0.223858 3 0.5 3C0.828305 3 1.15339 2.93534 1.45671 2.8097C1.76002 2.68406 2.03562 2.49991 2.26777 2.26777C2.49991 2.03562 2.68406 1.76002 2.8097 1.45671C2.93534 1.15339 3 0.828305 3 0.5C3 0.223858 3.22386 0 3.5 0Z"
        fill="#BABDF5"/>
</svg>
