<svg width="24" height="24" viewBox="0 0 24 24" fill="none" xmlns="http://www.w3.org/2000/svg">
  <path fill-rule="evenodd" clip-rule="evenodd"
        d="M7.5 15.75H3.75C3.33579 15.75 3 16.0858 3 16.5V20.25C3 20.6642 3.33579 21 3.75 21H7.5C7.91421 21 8.25 20.6642 8.25 20.25V16.5C8.25 16.0858 7.91421 15.75 7.5 15.75ZM3.75 12.75C1.67893 12.75 0 14.4289 0 16.5V20.25C0 22.3211 1.67893 24 3.75 24H7.5C9.57107 24 11.25 22.3211 11.25 20.25V16.5C11.25 14.4289 9.57107 12.75 7.5 12.75H3.75Z"
        fill="#939599"/>
  <path fill-rule="evenodd" clip-rule="evenodd"
        d="M7.5 3H3.75C3.33579 3 3 3.33579 3 3.75V7.5C3 7.91421 3.33579 8.25 3.75 8.25H7.5C7.91421 8.25 8.25 7.91421 8.25 7.5V3.75C8.25 3.33579 7.91421 3 7.5 3ZM3.75 0C1.67893 0 0 1.67893 0 3.75V7.5C0 9.57107 1.67893 11.25 3.75 11.25H7.5C9.57107 11.25 11.25 9.57107 11.25 7.5V3.75C11.25 1.67893 9.57107 0 7.5 0H3.75Z"
        fill="#939599"/>
  <path fill-rule="evenodd" clip-rule="evenodd"
        d="M20.25 15.75H16.5C16.0858 15.75 15.75 16.0858 15.75 16.5V20.25C15.75 20.6642 16.0858 21 16.5 21H20.25C20.6642 21 21 20.6642 21 20.25V16.5C21 16.0858 20.6642 15.75 20.25 15.75ZM16.5 12.75C14.4289 12.75 12.75 14.4289 12.75 16.5V20.25C12.75 22.3211 14.4289 24 16.5 24H20.25C22.3211 24 24 22.3211 24 20.25V16.5C24 14.4289 22.3211 12.75 20.25 12.75H16.5Z"
        fill="#939599"/>
  <path fill-rule="evenodd" clip-rule="evenodd"
        d="M18.375 8.25C19.8247 8.25 21 7.07475 21 5.625C21 4.17525 19.8247 3 18.375 3C16.9253 3 15.75 4.17525 15.75 5.625C15.75 7.07475 16.9253 8.25 18.375 8.25ZM18.375 11.25C21.4816 11.25 24 8.7316 24 5.625C24 2.5184 21.4816 0 18.375 0C15.2684 0 12.75 2.5184 12.75 5.625C12.75 8.7316 15.2684 11.25 18.375 11.25Z"
        fill="#939599"/>
</svg>
