<svg width="24" height="24" viewBox="0 0 24 24" fill="none" xmlns="http://www.w3.org/2000/svg">
  <path fill-rule="evenodd" clip-rule="evenodd"
        d="M18 3H6C5.17157 3 4.5 3.67157 4.5 4.5V19.5C4.5 20.3284 5.17157 21 6 21H18C18.8284 21 19.5 20.3284 19.5 19.5V4.5C19.5 3.67157 18.8284 3 18 3ZM6 0C3.51472 0 1.5 2.01472 1.5 4.5V19.5C1.5 21.9853 3.51472 24 6 24H18C20.4853 24 22.5 21.9853 22.5 19.5V4.5C22.5 2.01472 20.4853 0 18 0H6Z"
        fill="#939599"/>
  <path
    d="M6 17.25C6 16.4216 6.67157 15.75 7.5 15.75H16.5C17.3284 15.75 18 16.4216 18 17.25C18 18.0784 17.3284 18.75 16.5 18.75H7.5C6.67157 18.75 6 18.0784 6 17.25Z"
    fill="#939599"/>
  <path
    d="M6 12.75C6 11.9216 6.67157 11.25 7.5 11.25H11.25C12.0784 11.25 12.75 11.9216 12.75 12.75C12.75 13.5784 12.0784 14.25 11.25 14.25H7.5C6.67157 14.25 6 13.5784 6 12.75Z"
    fill="#939599"/>
  <path fill-rule="evenodd" clip-rule="evenodd"
        d="M12 4.5V3L6 3C5.17157 3 4.5 3.67157 4.5 4.5L4.5 6L10.5 6C11.3284 6 12 5.32843 12 4.5ZM15 0H6C3.51472 0 1.5 2.01472 1.5 4.5L1.5 9L10.5 9C12.9853 9 15 6.98528 15 4.5V0Z"
        fill="#939599"/>
</svg>
