<?xml version="1.0" standalone="no"?>
<!DOCTYPE svg PUBLIC "-//W3C//DTD SVG 20010904//EN"
 "http://www.w3.org/TR/2001/REC-SVG-20010904/DTD/svg10.dtd">
<svg version="1.0" xmlns="http://www.w3.org/2000/svg"
 width="700.000000pt" height="700.000000pt" viewBox="0 0 700.000000 700.000000"
 preserveAspectRatio="xMidYMid meet">
<metadata>
Created by potrace 1.14, written by Peter Selinger 2001-2017
</metadata>
<g transform="translate(0.000000,700.000000) scale(0.100000,-0.100000)"
fill="#000000" stroke="none">
<path d="M1419 6996 c-2 -2 -32 -7 -67 -10 -53 -5 -96 -13 -172 -31 -307 -74
-608 -263 -821 -515 -49 -57 -149 -203 -149 -216 0 -4 -6 -15 -13 -23 -38 -45
-122 -262 -153 -391 -21 -88 -22 -94 -31 -159 -10 -70 -11 -4216 -1 -4291 45
-345 199 -657 444 -904 241 -241 550 -394 895 -443 30 -4 1001 -8 2159 -8
1726 0 2118 2 2175 13 39 8 84 16 100 19 17 3 66 16 110 29 411 127 747 409
938 789 41 82 100 234 112 288 2 12 9 41 15 65 39 162 39 140 36 2332 l-2
2105 -22 100 c-84 386 -286 709 -582 934 -82 63 -194 132 -280 173 -55 26
-243 94 -283 102 -12 3 -48 10 -79 16 -31 6 -72 14 -90 18 -35 7 -4231 15
-4239 8z m1132 -562 c19 -17 25 -41 33 -128 7 -75 20 -83 112 -67 42 7 78 10
81 8 9 -9 17 -255 16 -517 0 -146 -1 -485 -2 -755 l-1 -490 -138 -138 -137
-138 -982 3 c-540 2 -985 7 -990 11 -12 12 -12 147 0 181 l10 28 99 -6 98 -6
21 33 c15 24 19 44 16 80 -5 54 -25 76 -70 77 -59 0 -114 21 -126 46 -20 46
-6 140 27 178 19 20 56 18 150 -8 29 -8 60 -12 68 -9 19 7 41 49 53 101 12 55
-4 75 -80 101 -74 25 -99 45 -99 79 0 37 37 108 71 136 24 21 34 23 61 16 17
-5 48 -21 69 -34 60 -40 81 -42 111 -7 35 39 56 81 52 106 -3 21 -51 67 -105
100 -50 31 -56 47 -34 94 20 46 49 80 86 104 26 17 51 11 84 -20 95 -87 119
-92 177 -33 37 36 40 44 35 78 -5 27 -19 49 -54 82 -81 76 -80 73 -33 124 42
45 102 89 128 92 7 1 29 -18 50 -43 86 -106 83 -104 125 -89 50 18 97 68 97
103 0 16 -15 44 -38 72 -67 80 -69 86 -25 127 63 60 135 88 170 66 6 -4 22
-32 35 -62 14 -31 33 -63 42 -73 24 -23 73 -21 120 6 63 36 65 45 27 131 -42
97 -38 115 31 149 61 29 104 38 134 26 17 -6 25 -24 38 -82 10 -42 23 -81 31
-87 36 -30 132 -15 164 24 13 15 13 27 2 79 -7 34 -15 71 -17 83 -8 46 46 79
139 83 35 1 55 -3 68 -15z m2816 -356 c176 -103 249 -185 260 -293 l5 -52 152
-38 c246 -61 479 -142 604 -208 l32 -18 -21 -42 c-106 -210 -327 -566 -534
-857 -25 -36 -53 -76 -63 -90 -9 -14 -19 -27 -22 -30 -3 -3 -16 -20 -29 -37
-12 -18 -26 -33 -31 -33 -4 0 -54 82 -110 183 -102 181 -218 365 -249 396 -46
45 -44 44 -144 5 -84 -33 -97 -41 -122 -81 -15 -25 -49 -70 -74 -101 -42 -52
-62 -75 -159 -181 -80 -87 -375 -381 -383 -381 -4 0 -66 59 -138 130 l-130
131 52 84 c101 162 191 340 233 459 15 44 44 103 63 132 37 53 138 171 179
208 25 23 25 11 6 183 l-5 52 110 151 c157 217 167 226 272 267 48 19 110 45
136 58 60 30 63 30 110 3z m-2672 -3383 l98 -95 -26 -24 c-14 -13 -33 -46 -42
-73 -25 -74 -55 -103 -108 -103 -31 0 -62 -35 -82 -90 -21 -58 -50 -88 -94
-96 -52 -9 -68 -20 -78 -51 -12 -35 -4 -59 65 -185 56 -102 85 -177 97 -247 7
-45 3 -52 -68 -107 -34 -27 -126 -106 -196 -168 -168 -148 -510 -495 -642
-651 -84 -99 -165 -185 -173 -185 -24 0 18 196 63 295 37 81 120 209 220 340
269 349 291 380 335 458 30 55 27 87 -7 87 -52 0 -163 -86 -436 -339 -168
-154 -191 -175 -291 -261 -132 -114 -380 -274 -396 -257 -7 6 69 148 115 215
60 88 184 236 332 397 271 294 369 409 408 483 16 29 4 52 -28 52 -51 0 -270
-149 -486 -329 -11 -9 -75 -56 -141 -104 -130 -93 -249 -155 -359 -184 -72
-20 -172 -24 -167 -7 2 5 24 26 50 48 292 240 624 565 860 840 101 118 158
176 175 177 7 0 21 2 32 4 31 6 128 -31 233 -89 126 -70 172 -85 205 -63 14 9
29 34 37 61 15 54 39 78 105 106 54 23 84 53 85 85 0 42 37 84 83 96 24 6 57
21 73 34 16 14 34 24 41 25 6 0 55 -43 108 -95z m2500 41 c135 -69 211 -120
254 -168 39 -45 41 -68 16 -212 -8 -48 -17 -101 -20 -119 -3 -17 -9 -56 -14
-85 -4 -29 -7 -89 -6 -134 2 -93 7 -99 93 -124 68 -20 81 -43 97 -176 11 -90
63 -174 176 -284 87 -84 103 -92 234 -128 123 -34 129 -40 108 -86 -62 -133
-296 -319 -418 -332 l-30 -3 -6 75 c-7 84 -12 103 -45 176 -62 137 -178 249
-356 345 -120 64 -123 66 -136 110 -17 60 -28 72 -97 106 -86 44 -106 49 -98
26 3 -10 24 -42 46 -72 22 -30 49 -77 59 -105 31 -86 88 -184 227 -396 71
-107 101 -169 142 -289 35 -101 35 -121 8 -178 -34 -70 -116 -128 -216 -153
-45 -12 -60 -11 -118 4 -93 26 -174 82 -295 205 -107 109 -124 128 -173 192
l-27 36 28 39 c16 21 44 51 64 66 48 36 151 88 176 88 34 0 58 -32 82 -110 12
-41 34 -97 48 -123 41 -77 119 -137 144 -111 11 10 -19 112 -45 155 -66 112
-221 262 -322 314 -83 42 -151 127 -161 201 -10 85 -69 163 -351 463 l-53 56
0 251 0 250 142 142 143 142 297 0 297 0 106 -54z"/>
<path d="M2560 5823 c-14 -2 -45 -8 -70 -14 -25 -6 -56 -13 -70 -15 -80 -15
-158 -37 -179 -50 -38 -26 -30 -52 119 -369 28 -60 90 -192 137 -292 47 -100
93 -189 102 -197 16 -15 44 -16 57 -3 9 9 9 920 0 935 -7 12 -44 14 -96 5z"/>
<path d="M1943 5606 c-116 -66 -332 -259 -429 -381 -21 -27 -42 -52 -45 -55
-20 -18 -109 -157 -107 -167 2 -8 66 -43 143 -79 77 -36 178 -83 223 -105 46
-21 85 -39 87 -39 1 0 65 -30 141 -66 224 -107 244 -115 262 -104 32 18 162
158 162 175 0 19 8 2 -209 464 -94 201 -174 368 -179 373 -4 4 -26 -3 -49 -16z"/>
<path d="M1263 4767 c-41 -53 -85 -222 -99 -378 l-6 -66 469 0 c278 0 473 3
480 9 15 12 6 37 -21 61 -17 15 -357 187 -370 187 -2 0 -50 22 -107 49 -94 44
-222 101 -306 137 -24 11 -33 11 -40 1z"/>
</g>
</svg>
